<svg xmlns="http://www.w3.org/2000/svg" version="1.1" xmlns:xlink="http://www.w3.org/1999/xlink" xmlns:svgjs="http://svgjs.com/svgjs" width="134" height="98"><svg width="134" height="98" viewBox="0 0 134 98" fill="none" xmlns="http://www.w3.org/2000/svg">
<path d="M74.8645 28.3613C73.5211 28.9413 70.5093 31.1454 69.2092 35.3216" stroke="#D2C26F" stroke-linecap="round"></path>
<path d="M59.6387 28.3613C60.8788 28.9413 63.6589 31.1454 64.859 35.3216" stroke="#D2C26F" stroke-linecap="round"></path>
<path d="M76.0981 28.2164C72.2863 28.2164 69.1962 25.1263 69.1962 21.3145C69.1962 19.1588 70.1833 17.2343 71.7341 15.9671C72.9236 14.995 74.4415 14.4126 76.0981 14.4126C79.9099 14.4126 83 17.5027 83 21.3145C83 25.1263 79.9099 28.2164 76.0981 28.2164Z" fill="#D2C26F" stroke="#D2C26F" stroke-width="2"></path>
<path d="M70.4041 26.137C69.2807 26.9891 66.395 28.1357 63.8385 25.9046" stroke="#D2C26F" stroke-width="2"></path>
<path d="M57.9701 28.2164C54.1583 28.2164 51.0682 25.1263 51.0682 21.3145C51.0682 19.1588 52.0554 17.2343 53.6061 15.9671C54.7957 14.995 56.3135 14.4126 57.9701 14.4126C61.782 14.4126 64.8721 17.5027 64.8721 21.3145C64.8721 25.1263 61.782 28.2164 57.9701 28.2164Z" fill="#D2C26F" stroke="#D2C26F" stroke-width="2"></path>
<circle cx="66.976" cy="10.4494" r="5.44936" transform="rotate(90 66.976 10.4494)" stroke="#D2C26F" stroke-width="2"></circle>
<rect x="70.8689" y="35.3752" width="4.53198" height="7.4371" rx="1" transform="rotate(90 70.8689 35.3752)" fill="#D2C26F"></rect>
<rect x="69.7068" y="72.5608" width="4.53198" height="5.11301" rx="1" transform="rotate(90 69.7068 72.5608)" fill="#D2C26F"></rect>
<path d="M67.1503 39.9072V72.5607" stroke="#D2C26F" stroke-width="2" stroke-linecap="round"></path>
<path d="M67.1503 75.9307V92.548" stroke="#D2C26F" stroke-width="2" stroke-linecap="round"></path>
<rect x="66.6855" y="84.1812" width="3.25373" height="3.13753" rx="1.56876" transform="rotate(90 66.6855 84.1812)" fill="#D2C26F"></rect>
<rect x="64.0128" y="84.9947" width="1.62687" height="4.41578" transform="rotate(90 64.0128 84.9947)" fill="#D2C26F"></rect>
<path d="M57.9702 87.8998C57.9702 88.7983 58.6985 89.5266 59.597 89.5266V82.0895C58.6985 82.0895 57.9702 82.8179 57.9702 83.7164V87.8998Z" fill="#D2C26F"></path>
<path d="M60.5848 82.0896C60.9378 82.0896 61.2239 82.3757 61.2239 82.7287C61.2239 83.0817 60.9378 83.3678 60.5848 83.3678H59.597V82.0896H60.5848Z" fill="#D2C26F"></path>
<path d="M60.5848 88.2484C60.9378 88.2484 61.2239 88.5346 61.2239 88.8875C61.2239 89.2405 60.9378 89.5267 60.5848 89.5267H59.597V88.2484H60.5848Z" fill="#D2C26F"></path>
<path d="M24.9213 78.088C13.4653 78.088 3.67325 69.256 3.67325 53.64C3.67325 38.152 13.4653 29.064 24.9213 29.064C36.4412 29.064 46.2333 38.024 46.2333 53.64C46.2333 69.128 36.4412 78.088 24.9213 78.088ZM24.9213 75.848C34.3293 75.848 39.1293 65.928 39.1293 53.64C39.1293 41.416 34.3293 31.432 24.9213 31.432C15.5773 31.432 10.7773 41.416 10.7773 53.64C10.7773 65.928 15.5773 75.848 24.9213 75.848Z" fill="#D2C26F"></path>
<path d="M87.3875 77V75.08L96.5395 74.248H97.3075V77H87.3875ZM93.7875 77C93.9155 69.896 93.9155 62.664 93.9155 54.088V52.296C93.9155 44.68 93.9155 37.384 93.7875 30.216H100.764C100.572 37.32 100.572 44.616 100.572 52.296V54.088C100.572 62.536 100.572 69.832 100.764 77H93.7875ZM97.3075 77V74.888H105.436C117.148 74.888 123.356 66.824 123.356 53.64C123.356 39.752 117.148 32.392 106.076 32.392H97.3075V30.216H106.908C121.564 30.216 130.332 38.792 130.332 53.576C130.332 68.04 121.116 77 105.948 77H97.3075ZM87.3875 32.2V30.216H97.3075V32.904H96.5395L87.3875 32.2Z" fill="#D2C26F"></path>
</svg><style>@media (prefers-color-scheme: light) { :root { filter: contrast(1) brightness(0.4); } }
@media (prefers-color-scheme: dark) { :root { filter: contrast(0.7407407407407407) brightness(2); } }
</style></svg>