<svg width="1178" height="39" viewBox="0 0 1178 39" fill="none" xmlns="http://www.w3.org/2000/svg">
<path d="M586.56 16.9333C586.56 16.9333 586.138 25.1648 585.109 26.9473C584.079 28.7298 581.791 29.3354 579.998 28.2999C578.204 27.2643 577.584 24.9798 578.613 23.1973C579.643 21.4148 586.56 16.9333 586.56 16.9333Z" fill="#AEA15B"/>
<path d="M586 15.0816C586 15.0816 578.73 19.0816 576.691 19.0816C574.653 19.0816 573 17.2907 573 15.0816C573 12.8725 574.653 11.0816 576.691 11.0816C578.73 11.0816 586 15.0816 586 15.0816Z" fill="#AEA15B"/>
<path d="M586.594 13.2416C586.594 13.2416 579.676 8.76007 578.647 6.97755C577.618 5.19502 578.238 2.91053 580.031 1.875C581.825 0.839466 584.113 1.44502 585.142 3.22755C586.171 5.01007 586.594 13.2416 586.594 13.2416Z" fill="#AEA15B"/>
<path d="M589.373 13.2999C589.373 13.2999 589.795 5.06838 590.824 3.28585C591.853 1.50333 594.141 0.89777 595.935 1.9333C597.729 2.96884 598.348 5.25333 597.319 7.03585C596.29 8.81838 589.373 13.2999 589.373 13.2999Z" fill="#AEA15B"/>
<path d="M590 15.0816C590 15.0816 597.27 11.0816 599.309 11.0816C601.347 11.0816 603 12.8725 603 15.0816C603 17.2907 601.347 19.0816 599.309 19.0816C597.27 19.0816 590 15.0816 590 15.0816Z" fill="#AEA15B"/>
<path d="M589.373 16.9333C589.373 16.9333 596.29 21.4148 597.319 23.1973C598.348 24.9798 597.729 27.2643 595.935 28.2999C594.141 29.3354 591.853 28.7298 590.824 26.9473C589.795 25.1648 589.373 16.9333 589.373 16.9333Z" fill="#AEA15B"/>
<line x1="631" y1="14.5" x2="1125" y2="14.5" stroke="#AEA15B"/>
<path d="M1125 14.5C1145.17 14.8333 1183.6 19.9 1176 37.5" stroke="#AEA15B"/>
<line y1="-0.5" x2="494" y2="-0.5" transform="matrix(-1 0 0 1 547 15.5)" stroke="#AEA15B"/>
<path d="M53 15C32.8333 15.3333 -5.6 20.4 2 38" stroke="#AEA15B"/>
</svg>
