<svg width="297" height="91" viewBox="0 0 297 91" fill="none" xmlns="http://www.w3.org/2000/svg">
<path d="M123.001 62V61.295C124.036 60.17 125.041 59.015 125.761 58.205C127.396 56.36 128.011 55.31 128.011 54.08C128.011 52.73 127.216 51.74 125.836 51.74C125.266 51.74 124.741 51.89 124.066 52.25L124.726 51.785L124.216 53.135C124.066 53.645 123.841 53.84 123.541 53.84C123.286 53.84 123.076 53.69 122.971 53.45C123.316 52.07 124.621 51.29 126.121 51.29C128.086 51.29 129.106 52.385 129.106 54.065C129.106 55.355 128.326 56.45 126.076 58.67C125.611 59.15 124.591 60.23 123.556 61.31L123.481 61.07H129.586V62H123.001ZM133.126 56.78C133.126 60.545 134.221 61.76 135.346 61.76C136.426 61.76 137.536 60.545 137.536 56.78C137.536 52.97 136.426 51.74 135.346 51.74C134.221 51.74 133.126 52.97 133.126 56.78ZM135.346 51.29C137.041 51.29 138.616 52.865 138.616 56.78C138.616 60.68 137.041 62.225 135.346 62.225C133.621 62.225 132.046 60.68 132.046 56.78C132.046 52.865 133.621 51.29 135.346 51.29ZM146.339 66.065C145.694 66.065 145.079 65.795 145.019 65.315C145.094 64.94 145.439 64.76 145.844 64.76C146.189 64.76 146.534 64.955 146.864 65.27L147.299 65.66L146.834 65.885L146.534 65.63C147.524 65.39 148.334 64.37 148.874 62.915L149.309 61.82L149.354 61.67L150.704 57.95L151.979 54.335H152.549L149.414 62.72C148.529 65.075 147.524 66.065 146.339 66.065ZM149.219 62.705L145.889 54.335H147.074L149.624 61.25L149.714 61.445L149.219 62.705ZM145.079 54.74V54.335H148.664V54.74L147.029 54.89H146.549L145.079 54.74ZM150.344 54.74V54.335H153.374V54.74L152.159 54.875H151.934L150.344 54.74ZM158.628 62.225C156.438 62.225 154.878 60.89 154.878 58.19C154.878 55.7 156.528 54.125 158.493 54.125C160.383 54.125 161.538 55.445 161.538 57.185C161.538 57.545 161.508 57.86 161.448 58.085H155.388V57.635H159.858C160.353 57.635 160.503 57.38 160.503 56.81C160.503 55.55 159.753 54.59 158.478 54.59C157.083 54.59 155.988 55.91 155.988 58.025C155.988 60.455 157.188 61.52 158.883 61.52C159.933 61.52 160.713 61.16 161.343 60.44L161.583 60.65C160.923 61.625 159.948 62.225 158.628 62.225ZM166.024 62.225C164.854 62.225 163.969 61.535 163.969 60.29C163.969 59.15 164.659 58.385 166.579 57.83C167.419 57.575 168.364 57.335 169.174 57.14V57.515C168.379 57.725 167.509 57.965 166.804 58.22C165.499 58.7 165.019 59.33 165.019 60.11C165.019 61.055 165.589 61.535 166.459 61.535C167.164 61.535 167.764 61.175 168.949 59.99L169.069 60.68H168.754C167.794 61.715 167.119 62.225 166.024 62.225ZM169.984 62.21C169.129 62.21 168.709 61.565 168.664 60.5V56.69C168.664 55.01 168.109 54.575 166.924 54.575C166.324 54.575 165.754 54.74 165.094 55.13L165.694 54.71L165.424 55.91C165.334 56.375 165.109 56.525 164.764 56.525C164.449 56.525 164.239 56.36 164.164 56.03C164.479 54.83 165.574 54.125 167.179 54.125C168.859 54.125 169.684 54.875 169.684 56.69V60.35C169.684 61.34 169.924 61.61 170.359 61.61C170.599 61.61 170.779 61.52 171.034 61.28L171.259 61.505C170.944 61.985 170.509 62.21 169.984 62.21ZM173.041 62V61.595L174.706 61.415H175.171L176.881 61.595V62H173.041ZM174.316 62C174.346 61.28 174.361 59.615 174.361 58.595V57.74C174.361 56.705 174.346 55.91 174.316 55.16L172.966 55.1V54.71L175.141 54.155L175.336 54.29L175.426 56.39V58.595C175.426 59.615 175.441 61.28 175.471 62H174.316ZM175.411 57.23L175.126 56.48H175.366C175.831 55.055 176.881 54.125 177.946 54.125C178.501 54.125 178.966 54.35 179.101 54.725C179.101 55.22 178.876 55.52 178.366 55.52C178.021 55.52 177.766 55.325 177.436 54.995L177.091 54.68L177.796 54.695C176.701 54.95 175.966 55.73 175.411 57.23ZM183.394 62.225C182.464 62.225 181.759 62.015 180.964 61.655L180.949 59.9H181.549L181.879 61.745L181.369 61.715V61.175C181.924 61.55 182.494 61.76 183.379 61.76C184.744 61.76 185.419 61.145 185.419 60.29C185.419 59.54 185.029 59.12 183.799 58.73L183.049 58.445C181.849 58.01 181.084 57.38 181.084 56.27C181.084 55.055 182.059 54.125 183.799 54.125C184.684 54.125 185.314 54.335 186.049 54.785L186.004 56.345H185.449L185.134 54.665L185.569 54.71V55.205C184.954 54.77 184.399 54.59 183.799 54.59C182.614 54.59 182.029 55.175 182.029 55.955C182.029 56.72 182.494 57.11 183.589 57.485L184.324 57.755C185.824 58.295 186.394 58.955 186.394 59.975C186.394 61.22 185.389 62.225 183.394 62.225ZM193.618 62V61.595L195.268 61.43H195.643L197.218 61.595V62H193.618ZM194.893 62C194.923 61.28 194.953 59.615 194.953 58.595V57.74C194.953 56.72 194.923 55.91 194.893 55.145L193.528 55.1V54.71L195.853 54.155L196.033 54.29L196.003 56.33V58.595C196.003 59.615 196.018 61.28 196.048 62H194.893ZM195.358 52.175C194.908 52.175 194.548 51.86 194.548 51.395C194.548 50.945 194.908 50.6 195.358 50.6C195.793 50.6 196.168 50.945 196.168 51.395C196.168 51.86 195.793 52.175 195.358 52.175ZM199.485 62V61.595L201.135 61.43H201.51L203.07 61.595V62H199.485ZM200.76 62C200.79 61.28 200.805 59.615 200.805 58.595V57.74C200.805 56.705 200.79 55.91 200.76 55.16L199.41 55.1V54.71L201.585 54.155L201.78 54.29L201.87 56.045V58.595C201.87 59.615 201.885 61.28 201.915 62H200.76ZM204.57 62V61.595L206.205 61.43H206.595L208.155 61.595V62H204.57ZM205.845 62C205.875 61.28 205.89 59.645 205.89 58.595V56.93C205.89 55.4 205.35 54.875 204.465 54.875C203.775 54.875 202.785 55.22 201.66 56.465L201.525 55.985H201.66C202.74 54.665 203.85 54.125 204.885 54.125C206.175 54.125 206.94 54.905 206.94 56.93V58.595C206.94 59.645 206.955 61.28 206.985 62H205.845ZM211.924 54.875V54.335H214.654V54.875H211.924ZM213.154 62.225C211.939 62.225 211.384 61.58 211.384 60.29C211.384 59.825 211.399 59.525 211.399 58.985V54.875H209.869V54.425L211.714 54.29L211.414 54.515L211.804 51.995H212.524L212.464 54.56V60.26C212.464 61.205 212.824 61.61 213.484 61.61C213.949 61.61 214.249 61.49 214.654 61.25L214.864 61.52C214.444 61.97 213.889 62.225 213.154 62.225ZM220.569 62.225C218.379 62.225 216.819 60.89 216.819 58.19C216.819 55.7 218.469 54.125 220.434 54.125C222.324 54.125 223.479 55.445 223.479 57.185C223.479 57.545 223.449 57.86 223.389 58.085H217.329V57.635H221.799C222.294 57.635 222.444 57.38 222.444 56.81C222.444 55.55 221.694 54.59 220.419 54.59C219.024 54.59 217.929 55.91 217.929 58.025C217.929 60.455 219.129 61.52 220.824 61.52C221.874 61.52 222.654 61.16 223.284 60.44L223.524 60.65C222.864 61.625 221.889 62.225 220.569 62.225ZM228.864 65.9C226.689 65.9 225.804 65.09 225.804 63.92C225.804 62.975 226.479 62.36 227.784 61.82L227.874 61.97C227.034 62.555 226.689 63.005 226.689 63.74C226.689 64.82 227.484 65.375 228.909 65.375C231.009 65.375 232.089 64.55 232.089 63.455C232.089 62.765 231.684 62.195 230.379 62.195H228.504C228.099 62.195 227.784 62.18 227.484 62.09V62.06C226.704 61.88 226.344 61.43 226.344 60.77C226.344 60.14 226.704 59.63 227.574 58.94V58.805L227.919 58.985C227.364 59.525 227.109 59.855 227.109 60.365C227.109 60.875 227.439 61.25 228.264 61.25H230.469C232.179 61.25 233.034 61.94 233.034 63.2C233.034 64.565 231.579 65.9 228.864 65.9ZM229.029 59.45C227.289 59.45 226.179 58.4 226.179 56.78C226.179 55.16 227.304 54.125 229.044 54.125C229.929 54.125 230.649 54.38 231.114 54.845L231.159 54.875C231.639 55.325 231.894 55.985 231.894 56.78C231.894 58.4 230.754 59.45 229.029 59.45ZM229.029 59C230.154 59 230.904 58.1 230.904 56.765C230.904 55.445 230.154 54.56 229.044 54.56C227.919 54.56 227.184 55.46 227.184 56.78C227.184 58.115 227.904 59 229.029 59ZM230.679 55.055V54.8H230.769L232.839 54.17L233.094 54.335V55.1L230.679 55.055ZM235.158 62V61.595L236.823 61.415H237.288L238.998 61.595V62H235.158ZM236.433 62C236.463 61.28 236.478 59.615 236.478 58.595V57.74C236.478 56.705 236.463 55.91 236.433 55.16L235.083 55.1V54.71L237.258 54.155L237.453 54.29L237.543 56.39V58.595C237.543 59.615 237.558 61.28 237.588 62H236.433ZM237.528 57.23L237.243 56.48H237.483C237.948 55.055 238.998 54.125 240.063 54.125C240.618 54.125 241.083 54.35 241.218 54.725C241.218 55.22 240.993 55.52 240.483 55.52C240.138 55.52 239.883 55.325 239.553 54.995L239.208 54.68L239.913 54.695C238.818 54.95 238.083 55.73 237.528 57.23ZM242.959 62V61.595L244.609 61.43H244.984L246.559 61.595V62H242.959ZM244.234 62C244.264 61.28 244.294 59.615 244.294 58.595V57.74C244.294 56.72 244.264 55.91 244.234 55.145L242.869 55.1V54.71L245.194 54.155L245.374 54.29L245.344 56.33V58.595C245.344 59.615 245.359 61.28 245.389 62H244.234ZM244.699 52.175C244.249 52.175 243.889 51.86 243.889 51.395C243.889 50.945 244.249 50.6 244.699 50.6C245.134 50.6 245.509 50.945 245.509 51.395C245.509 51.86 245.134 52.175 244.699 52.175ZM250.461 54.875V54.335H253.191V54.875H250.461ZM251.691 62.225C250.476 62.225 249.921 61.58 249.921 60.29C249.921 59.825 249.936 59.525 249.936 58.985V54.875H248.406V54.425L250.251 54.29L249.951 54.515L250.341 51.995H251.061L251.001 54.56V60.26C251.001 61.205 251.361 61.61 252.021 61.61C252.486 61.61 252.786 61.49 253.191 61.25L253.401 61.52C252.981 61.97 252.426 62.225 251.691 62.225ZM255.746 66.065C255.101 66.065 254.486 65.795 254.426 65.315C254.501 64.94 254.846 64.76 255.251 64.76C255.596 64.76 255.941 64.955 256.271 65.27L256.706 65.66L256.241 65.885L255.941 65.63C256.931 65.39 257.741 64.37 258.281 62.915L258.716 61.82L258.761 61.67L260.111 57.95L261.386 54.335H261.956L258.821 62.72C257.936 65.075 256.931 66.065 255.746 66.065ZM258.626 62.705L255.296 54.335H256.481L259.031 61.25L259.121 61.445L258.626 62.705ZM254.486 54.74V54.335H258.071V54.74L256.436 54.89H255.956L254.486 54.74ZM259.751 54.74V54.335H262.781V54.74L261.566 54.875H261.341L259.751 54.74Z" fill="white"/>
<path d="M128.191 38.24C125.566 38.24 123.361 36.14 123.361 32.57C123.361 29.06 125.566 26.885 128.191 26.885C130.846 26.885 133.051 29 133.051 32.57C133.051 36.095 130.846 38.24 128.191 38.24ZM128.191 37.73C130.561 37.73 131.806 35.36 131.806 32.57C131.806 29.78 130.561 27.41 128.191 27.41C125.851 27.41 124.591 29.78 124.591 32.57C124.591 35.36 125.851 37.73 128.191 37.73ZM138.867 38.225C136.827 38.225 135.537 36.875 135.537 35.27C135.537 33.785 136.422 32.675 138.402 31.76V31.7L138.567 32.03C137.142 32.87 136.542 33.89 136.542 34.955C136.542 36.305 137.562 37.505 139.197 37.505C140.442 37.505 141.402 37.04 142.182 36.095L142.587 36.35H142.467C141.702 37.385 140.592 38.225 138.867 38.225ZM142.752 36.095L142.377 35.87H142.452C143.427 34.475 143.832 33.275 144.132 31.205H144.762C144.357 33.38 143.907 34.58 142.752 36.095ZM144.237 31.745L142.677 31.565V31.145H145.842V31.565L144.462 31.745H144.237ZM144.762 38.15C144.012 38.15 143.532 38.015 143.097 37.565C141.897 36.245 140.922 35.165 139.932 34.025C139.092 33.05 138.687 32.555 137.817 31.565C137.082 30.74 136.767 29.99 136.767 29.18C136.767 27.755 137.862 26.915 139.302 26.915C140.817 26.915 141.627 27.785 141.627 28.94C141.627 30.2 140.637 31.04 139.002 31.88V31.955L138.837 31.58C140.037 30.77 140.802 30.05 140.802 28.94C140.802 27.965 140.217 27.35 139.287 27.35C138.387 27.35 137.622 28.01 137.622 28.985C137.622 29.6 137.757 30.08 138.417 30.89C139.137 31.745 139.647 32.3 140.532 33.275C141.792 34.655 142.857 35.78 144.717 37.73L144.012 37.43L145.857 37.625L145.842 38.015C145.452 38.105 145.122 38.15 144.762 38.15ZM148.278 38V37.565L150.303 37.4H150.453V38H148.278ZM149.838 38C149.883 36.35 149.883 34.67 149.883 32.645V32.255C149.883 30.455 149.883 28.79 149.838 27.125H151.053C151.023 28.775 151.023 30.455 151.023 32.255V32.645C151.023 34.67 151.023 36.35 151.053 38H149.838ZM150.453 38V37.52H152.358C155.328 37.52 156.828 35.63 156.828 32.57C156.828 29.345 155.313 27.62 152.523 27.62H150.453V27.125H152.703C156.048 27.125 158.073 29.09 158.073 32.57C158.073 35.915 155.958 38 152.493 38H150.453ZM148.278 27.575V27.125H150.453V27.725H150.303L148.278 27.575ZM164.935 38V37.565L166.405 37.415H166.66L168.28 37.565V38H164.935ZM166.03 38L169.675 27.035H170.41L174.115 38H172.945L169.615 27.83H169.915L169.855 28.04L166.645 38H166.03ZM167.65 34.25L167.68 33.785H172.21L172.24 34.25H167.65ZM171.055 38V37.565L173.065 37.4H173.425L175.345 37.565V38H171.055ZM180.614 38.225C178.424 38.225 176.954 36.74 176.954 34.265C176.954 31.625 178.784 30.125 180.779 30.125C182.069 30.125 183.164 30.86 183.509 32.03C183.434 32.36 183.239 32.51 182.939 32.51C182.549 32.51 182.354 32.33 182.249 31.88L181.844 30.575L182.534 31.16C181.919 30.74 181.394 30.59 180.824 30.59C179.264 30.59 178.064 31.955 178.064 34.145C178.064 36.29 179.249 37.52 180.944 37.52C181.844 37.52 182.624 37.19 183.314 36.455L183.539 36.65C182.894 37.64 182.009 38.225 180.614 38.225ZM189.558 38.225C187.368 38.225 185.898 36.74 185.898 34.265C185.898 31.625 187.728 30.125 189.723 30.125C191.013 30.125 192.108 30.86 192.453 32.03C192.378 32.36 192.183 32.51 191.883 32.51C191.493 32.51 191.298 32.33 191.193 31.88L190.788 30.575L191.478 31.16C190.863 30.74 190.338 30.59 189.768 30.59C188.208 30.59 187.008 31.955 187.008 34.145C187.008 36.29 188.193 37.52 189.888 37.52C190.788 37.52 191.568 37.19 192.258 36.455L192.483 36.65C191.838 37.64 190.953 38.225 189.558 38.225ZM198.501 38.225C196.596 38.225 194.841 36.89 194.841 34.175C194.841 31.49 196.641 30.125 198.501 30.125C200.361 30.125 202.176 31.475 202.176 34.175C202.176 36.89 200.406 38.225 198.501 38.225ZM198.501 37.76C200.046 37.76 201.006 36.5 201.006 34.19C201.006 31.895 200.046 30.59 198.501 30.59C196.941 30.59 195.996 31.895 195.996 34.19C195.996 36.5 196.941 37.76 198.501 37.76ZM207.8 38.225C206.375 38.225 205.595 37.445 205.61 35.225L205.64 30.8L205.94 31.04L204.38 30.83V30.44L206.585 30.23L206.735 30.41L206.675 32.33V35.21C206.675 36.875 207.215 37.445 208.22 37.445C209.165 37.445 210.08 36.89 210.815 35.915L211.13 36.455H210.8C210.035 37.505 209.03 38.225 207.8 38.225ZM210.74 38.135L210.695 36.275V36.26L210.71 30.98L209.465 30.845V30.455L211.64 30.23L211.79 30.41L211.73 32.33V37.475L212.9 37.595V38.015L210.74 38.135ZM215.202 38V37.595L216.852 37.43H217.227L218.787 37.595V38H215.202ZM216.477 38C216.507 37.28 216.522 35.615 216.522 34.595V33.74C216.522 32.705 216.507 31.91 216.477 31.16L215.127 31.1V30.71L217.302 30.155L217.497 30.29L217.587 32.045V34.595C217.587 35.615 217.602 37.28 217.632 38H216.477ZM220.287 38V37.595L221.922 37.43H222.312L223.872 37.595V38H220.287ZM221.562 38C221.592 37.28 221.607 35.645 221.607 34.595V32.93C221.607 31.4 221.067 30.875 220.182 30.875C219.492 30.875 218.502 31.22 217.377 32.465L217.242 31.985H217.377C218.457 30.665 219.567 30.125 220.602 30.125C221.892 30.125 222.657 30.905 222.657 32.93V34.595C222.657 35.645 222.672 37.28 222.702 38H221.562ZM227.641 30.875V30.335H230.371V30.875H227.641ZM228.871 38.225C227.656 38.225 227.101 37.58 227.101 36.29C227.101 35.825 227.116 35.525 227.116 34.985V30.875H225.586V30.425L227.431 30.29L227.131 30.515L227.521 27.995H228.241L228.181 30.56V36.26C228.181 37.205 228.541 37.61 229.201 37.61C229.666 37.61 229.966 37.49 230.371 37.25L230.581 37.52C230.161 37.97 229.606 38.225 228.871 38.225ZM232.445 38V37.595L234.095 37.43H234.47L236.045 37.595V38H232.445ZM233.72 38C233.75 37.28 233.78 35.615 233.78 34.595V33.74C233.78 32.72 233.75 31.91 233.72 31.145L232.355 31.1V30.71L234.68 30.155L234.86 30.29L234.83 32.33V34.595C234.83 35.615 234.845 37.28 234.875 38H233.72ZM234.185 28.175C233.735 28.175 233.375 27.86 233.375 27.395C233.375 26.945 233.735 26.6 234.185 26.6C234.62 26.6 234.995 26.945 234.995 27.395C234.995 27.86 234.62 28.175 234.185 28.175ZM238.312 38V37.595L239.962 37.43H240.337L241.897 37.595V38H238.312ZM239.587 38C239.617 37.28 239.632 35.615 239.632 34.595V33.74C239.632 32.705 239.617 31.91 239.587 31.16L238.237 31.1V30.71L240.412 30.155L240.607 30.29L240.697 32.045V34.595C240.697 35.615 240.712 37.28 240.742 38H239.587ZM243.397 38V37.595L245.032 37.43H245.422L246.982 37.595V38H243.397ZM244.672 38C244.702 37.28 244.717 35.645 244.717 34.595V32.93C244.717 31.4 244.177 30.875 243.292 30.875C242.602 30.875 241.612 31.22 240.487 32.465L240.352 31.985H240.487C241.567 30.665 242.677 30.125 243.712 30.125C245.002 30.125 245.767 30.905 245.767 32.93V34.595C245.767 35.645 245.782 37.28 245.812 38H244.672ZM252.191 41.9C250.016 41.9 249.131 41.09 249.131 39.92C249.131 38.975 249.806 38.36 251.111 37.82L251.201 37.97C250.361 38.555 250.016 39.005 250.016 39.74C250.016 40.82 250.811 41.375 252.236 41.375C254.336 41.375 255.416 40.55 255.416 39.455C255.416 38.765 255.011 38.195 253.706 38.195H251.831C251.426 38.195 251.111 38.18 250.811 38.09V38.06C250.031 37.88 249.671 37.43 249.671 36.77C249.671 36.14 250.031 35.63 250.901 34.94V34.805L251.246 34.985C250.691 35.525 250.436 35.855 250.436 36.365C250.436 36.875 250.766 37.25 251.591 37.25H253.796C255.506 37.25 256.361 37.94 256.361 39.2C256.361 40.565 254.906 41.9 252.191 41.9ZM252.356 35.45C250.616 35.45 249.506 34.4 249.506 32.78C249.506 31.16 250.631 30.125 252.371 30.125C253.256 30.125 253.976 30.38 254.441 30.845L254.486 30.875C254.966 31.325 255.221 31.985 255.221 32.78C255.221 34.4 254.081 35.45 252.356 35.45ZM252.356 35C253.481 35 254.231 34.1 254.231 32.765C254.231 31.445 253.481 30.56 252.371 30.56C251.246 30.56 250.511 31.46 250.511 32.78C250.511 34.115 251.231 35 252.356 35ZM254.006 31.055V30.8H254.096L256.166 30.17L256.421 30.335V31.1L254.006 31.055ZM263.507 38V37.565L265.532 37.4H265.682V38H263.507ZM265.067 38C265.112 36.35 265.112 34.67 265.112 33.065V32.15C265.112 30.455 265.112 28.775 265.067 27.125H266.282C266.252 28.79 266.252 30.455 266.252 32.42V33.26C266.252 34.67 266.252 36.35 266.282 38H265.067ZM265.682 38V37.505H270.887L270.362 37.835L270.827 35.15H271.457L271.337 38H265.682ZM263.507 27.575V27.125H267.887V27.575L265.847 27.725H265.532L263.507 27.575ZM275.195 30.875V30.335H277.925V30.875H275.195ZM276.425 38.225C275.21 38.225 274.655 37.58 274.655 36.29C274.655 35.825 274.67 35.525 274.67 34.985V30.875H273.14V30.425L274.985 30.29L274.685 30.515L275.075 27.995H275.795L275.735 30.56V36.26C275.735 37.205 276.095 37.61 276.755 37.61C277.22 37.61 277.52 37.49 277.925 37.25L278.135 37.52C277.715 37.97 277.16 38.225 276.425 38.225ZM283.345 38.225C281.425 38.225 280.09 36.605 280.09 34.265C280.09 31.7 281.59 30.125 283.555 30.125C284.38 30.125 285.235 30.5 285.97 31.505H286.12L285.94 31.925C285.19 31.1 284.56 30.755 283.78 30.755C282.385 30.755 281.215 31.79 281.215 34.25C281.215 36.5 282.28 37.565 283.675 37.565C284.545 37.565 285.19 37.22 285.925 36.32L286.09 36.77H285.955C285.265 37.76 284.365 38.225 283.345 38.225ZM285.82 38.15L285.775 36.65V31.64L285.79 31.49V26.87L284.41 26.81V26.405L286.63 25.97L286.855 26.105L286.81 28.37V37.49L288.28 37.595V38L285.82 38.15ZM292.046 38.225C291.551 38.225 291.206 37.82 291.206 37.37C291.206 36.89 291.551 36.515 292.046 36.515C292.541 36.515 292.916 36.89 292.916 37.37C292.916 37.82 292.541 38.225 292.046 38.225Z" fill="white"/>
<line x1="122.003" y1="42.5" x2="296.003" y2="43.5" stroke="white"/>
<path d="M56.5452 20.6328C55.5126 21.1241 53.1975 22.9908 52.1982 26.5278" stroke="white" stroke-linecap="round"/>
<path d="M44.8418 20.6328C45.795 21.1241 47.932 22.9908 48.8544 26.5278" stroke="white" stroke-linecap="round"/>
<path d="M57.4933 20.357C54.7801 20.357 52.4194 17.9019 52.4194 14.6646C52.4194 12.851 53.1739 11.2564 54.3216 10.223C55.2 9.43206 56.3034 8.97217 57.4933 8.97217C60.2064 8.97217 62.5671 11.4273 62.5671 14.6646C62.5671 17.9019 60.2064 20.357 57.4933 20.357Z" fill="white" stroke="white" stroke-width="2"/>
<path d="M53.1165 18.7486C52.253 19.4703 50.0349 20.4414 48.0698 18.5518" stroke="white" stroke-width="2"/>
<path d="M43.5592 20.357C40.846 20.357 38.4853 17.9019 38.4853 14.6646C38.4853 12.851 39.2398 11.2564 40.3875 10.223C41.2659 9.43206 42.3693 8.97217 43.5592 8.97217C46.2724 8.97217 48.6331 11.4273 48.6331 14.6646C48.6331 17.9019 46.2724 20.357 43.5592 20.357Z" fill="white" stroke="white" stroke-width="2"/>
<path d="M50.4816 9.92443C48.3851 9.92443 46.5243 8.02009 46.5243 5.46221C46.5243 2.90433 48.3851 1 50.4816 1C52.5782 1 54.439 2.90433 54.439 5.46221C54.439 8.02009 52.5782 9.92443 50.4816 9.92443Z" stroke="white" stroke-width="2"/>
<rect x="53.4739" y="26.5728" width="3.83831" height="5.71658" rx="1" transform="rotate(90 53.4739 26.5728)" fill="white"/>
<rect x="52.5806" y="58.0669" width="3.83831" height="3.93015" rx="1" transform="rotate(90 52.5806 58.0669)" fill="white"/>
<path d="M50.6155 30.4111V58.0667" stroke="white" stroke-width="2" stroke-linecap="round"/>
<path d="M50.6155 60.9209V74.9947" stroke="white" stroke-width="2" stroke-linecap="round"/>
<rect x="50.2583" y="67.9087" width="2.75571" height="2.41168" rx="1.20584" transform="rotate(90 50.2583 67.9087)" fill="white"/>
<rect x="48.2039" y="68.5977" width="1.37786" height="3.39422" transform="rotate(90 48.2039 68.5977)" fill="white"/>
<path d="M43.5591 71.1855C43.5591 71.8762 44.119 72.436 44.8096 72.436V66.1373C44.119 66.1373 43.5591 66.6971 43.5591 67.3878V71.1855Z" fill="white"/>
<path d="M45.519 66.1372C45.818 66.1372 46.0603 66.3796 46.0603 66.6785C46.0603 66.9775 45.818 67.2198 45.519 67.2198H44.8098V66.1372H45.519Z" fill="white"/>
<path d="M45.519 71.3535C45.818 71.3535 46.0603 71.5959 46.0603 71.8948C46.0603 72.1938 45.818 72.4361 45.519 72.4361H44.8098V71.3535H45.519Z" fill="white"/>
<path d="M19.1574 66.4283C10.5654 66.4283 3.22135 59.8043 3.22135 48.0923C3.22135 36.4763 10.5654 29.6603 19.1574 29.6603C27.7974 29.6603 35.1414 36.3803 35.1414 48.0923C35.1414 59.7083 27.7974 66.4283 19.1574 66.4283ZM19.1574 64.7483C26.2134 64.7483 29.8134 57.3083 29.8134 48.0923C29.8134 38.9243 26.2134 31.4363 19.1574 31.4363C12.1494 31.4363 8.54936 38.9243 8.54936 48.0923C8.54936 57.3083 12.1494 64.7483 19.1574 64.7483Z" fill="white"/>
<path d="M67.5742 65.6123V64.1723L74.4382 63.5483H75.0142V65.6123H67.5742ZM72.3742 65.6123C72.4702 60.2843 72.4702 54.8603 72.4702 48.4283V47.0843C72.4702 41.3723 72.4702 35.9003 72.3742 30.5243H77.6062C77.4622 35.8523 77.4622 41.3243 77.4622 47.0843V48.4283C77.4622 54.7643 77.4622 60.2363 77.6062 65.6123H72.3742ZM75.0142 65.6123V64.0283H81.1102C89.8942 64.0283 94.5502 57.9803 94.5502 48.0923C94.5502 37.6763 89.8942 32.1563 81.5902 32.1563H75.0142V30.5243H82.2142C93.2062 30.5243 99.7822 36.9563 99.7822 48.0443C99.7822 58.8923 92.8702 65.6123 81.4942 65.6123H75.0142ZM67.5742 32.0123V30.5243H75.0142V32.5403H74.4382L67.5742 32.0123Z" fill="white"/>
</svg>
