<svg width="35" height="35" viewBox="0 0 35 35" fill="none" xmlns="http://www.w3.org/2000/svg">
<path d="M28.8351 30.6056C25.8571 30.6056 22.9069 29.8899 19.9845 28.4586C17.062 27.0272 14.4438 25.1565 12.1298 22.8465C9.81583 20.5365 7.94113 17.9203 6.5057 14.9979C5.07026 12.0755 4.35254 9.12726 4.35254 6.15316C4.35254 5.64574 4.52775 5.21683 4.87816 4.86644C5.22855 4.51603 5.65746 4.34082 6.16488 4.34082H11.3634C11.8141 4.34082 12.193 4.47151 12.5003 4.73289C12.8076 4.99425 13.0092 5.35971 13.1052 5.82927L14.0745 10.3419C14.1425 10.7352 14.1324 11.0957 14.0443 11.4235C13.9561 11.7513 13.7907 12.0297 13.548 12.2589L9.94995 15.798C11.1589 17.7991 12.5377 19.5655 14.0864 21.0971C15.6351 22.6288 17.387 23.9578 19.3422 25.0843L22.8673 21.531C23.1424 21.2454 23.446 21.0468 23.778 20.9349C24.11 20.8231 24.4616 20.8102 24.8329 20.8964L29.1289 21.8239C29.588 21.9278 29.9559 22.1452 30.2326 22.4761C30.5092 22.8069 30.6475 23.2081 30.6475 23.6796V28.7846C30.6475 29.2959 30.4722 29.7272 30.1218 30.0786C29.7714 30.4299 29.3425 30.6056 28.8351 30.6056Z" fill="white"/>
</svg>
