<svg width="79" height="207" viewBox="0 0 79 207" fill="none" xmlns="http://www.w3.org/2000/svg">
<path d="M57.774 56.226C54.6859 57.5593 47.7626 62.626 44.774 72.226" stroke="white" stroke-width="3" stroke-linecap="round"/>
<path d="M22.774 56.226C25.6246 57.5593 32.0154 62.626 34.774 72.226" stroke="white" stroke-width="3" stroke-linecap="round"/>
<path d="M60.6097 56.1918C51.6823 56.1918 44.4453 48.9547 44.4453 40.0274C44.4453 34.9784 46.7578 30.4712 50.3889 27.5037C53.1748 25.2271 56.7302 23.863 60.6097 23.863C69.537 23.863 76.774 31.1 76.774 40.0274C76.774 48.9547 69.537 56.1918 60.6097 56.1918Z" stroke="white" stroke-width="4"/>
<path d="M47.5206 51.113C44.9384 53.0719 38.3049 55.7075 32.4282 50.5787" stroke="white" stroke-width="2"/>
<path d="M18.9384 56.1918C10.0111 56.1918 2.77402 48.9547 2.77402 40.0274C2.77402 34.9784 5.0865 30.4712 8.71767 27.5037C11.5035 25.2271 15.059 23.863 18.9384 23.863C27.8657 23.863 35.1028 31.1 35.1028 40.0274C35.1028 48.9547 27.8657 56.1918 18.9384 56.1918Z" stroke="white" stroke-width="4"/>
<circle cx="39.6405" cy="15.0514" r="12.8253" transform="rotate(90 39.6405 15.0514)" stroke="white" stroke-width="4"/>
<rect x="48.5891" y="72.3492" width="10.4178" height="17.0959" rx="5.2089" transform="rotate(90 48.5891 72.3492)" fill="white"/>
<rect x="45.9178" y="157.829" width="10.4178" height="11.7534" rx="5.2089" transform="rotate(90 45.9178 157.829)" fill="white"/>
<path d="M40.0411 82.7671L40.0411 157.829" stroke="white" stroke-width="5" stroke-linecap="round"/>
<path d="M40.0411 165.575V203.774" stroke="white" stroke-width="5" stroke-linecap="round"/>
<rect x="38.9727" y="184.541" width="7.47945" height="7.21233" rx="3.60616" transform="rotate(90 38.9727 184.541)" fill="white"/>
<rect x="32.8289" y="186.411" width="3.73973" height="10.1507" transform="rotate(90 32.8289 186.411)" fill="white"/>
<path d="M18.9385 194.829C18.9385 195.933 19.8339 196.829 20.9385 196.829H22.6782V179.733H20.9385C19.8339 179.733 18.9385 180.628 18.9385 181.733V194.829Z" fill="white"/>
<path d="M24.9488 179.733C25.7602 179.733 26.418 180.391 26.418 181.202C26.418 182.013 25.7602 182.671 24.9488 182.671H22.6782V179.733H24.9488Z" fill="white"/>
<path d="M24.9488 193.89C25.7602 193.89 26.418 194.548 26.418 195.36C26.418 196.171 25.7602 196.829 24.9488 196.829H22.6782V193.89H24.9488Z" fill="white"/>
</svg>
