<svg width="34" height="90" viewBox="0 0 34 90" fill="none" xmlns="http://www.w3.org/2000/svg">
<path d="M24.8645 24.3613C23.5211 24.9413 20.5093 27.1454 19.2092 31.3216" stroke="#D2C26F" stroke-linecap="round"/>
<path d="M9.63867 24.3613C10.8787 24.9413 13.6589 27.1454 14.8589 31.3216" stroke="#D2C26F" stroke-linecap="round"/>
<path d="M26.0981 24.2164C22.2863 24.2164 19.1962 21.1263 19.1962 17.3145C19.1962 15.1588 20.1833 13.2343 21.7341 11.9671C22.9236 10.995 24.4415 10.4126 26.0981 10.4126C29.9099 10.4126 33 13.5027 33 17.3145C33 21.1263 29.9099 24.2164 26.0981 24.2164Z" fill="#D2C26F" stroke="#D2C26F" stroke-width="2"/>
<path d="M20.4041 22.137C19.2807 22.9891 16.395 24.1357 13.8385 21.9046" stroke="#D2C26F" stroke-width="2"/>
<path d="M7.97015 24.2164C4.15833 24.2164 1.06824 21.1263 1.06824 17.3145C1.06824 15.1588 2.0554 13.2343 3.60614 11.9671C4.79568 10.995 6.31357 10.4126 7.97015 10.4126C11.782 10.4126 14.8721 13.5027 14.8721 17.3145C14.8721 21.1263 11.782 24.2164 7.97015 24.2164Z" fill="#D2C26F" stroke="#D2C26F" stroke-width="2"/>
<circle cx="16.9759" cy="6.44936" r="5.44936" transform="rotate(90 16.9759 6.44936)" stroke="#D2C26F" stroke-width="2"/>
<rect x="20.8689" y="31.3752" width="4.53198" height="7.4371" rx="1" transform="rotate(90 20.8689 31.3752)" fill="#D2C26F"/>
<rect x="19.7068" y="68.5608" width="4.53198" height="5.11301" rx="1" transform="rotate(90 19.7068 68.5608)" fill="#D2C26F"/>
<path d="M17.1504 35.9072L17.1504 68.5607" stroke="#D2C26F" stroke-width="2" stroke-linecap="round"/>
<path d="M17.1504 71.9307V88.548" stroke="#D2C26F" stroke-width="2" stroke-linecap="round"/>
<rect x="16.6855" y="80.1812" width="3.25373" height="3.13753" rx="1.56876" transform="rotate(90 16.6855 80.1812)" fill="#D2C26F"/>
<rect x="14.0127" y="80.9947" width="1.62687" height="4.41578" transform="rotate(90 14.0127 80.9947)" fill="#D2C26F"/>
<path d="M7.96997 83.8998C7.96997 84.7983 8.69834 85.5266 9.59684 85.5266V78.0895C8.69834 78.0895 7.96997 78.8179 7.96997 79.7164V83.8998Z" fill="#D2C26F"/>
<path d="M10.5848 78.0896C10.9377 78.0896 11.2239 78.3757 11.2239 78.7287C11.2239 79.0817 10.9377 79.3678 10.5848 79.3678H9.59701V78.0896H10.5848Z" fill="#D2C26F"/>
<path d="M10.5848 84.2484C10.9377 84.2484 11.2239 84.5346 11.2239 84.8875C11.2239 85.2405 10.9377 85.5267 10.5848 85.5267H9.59701V84.2484H10.5848Z" fill="#D2C26F"/>
</svg>
