<svg width="35" height="35" viewBox="0 0 35 35" fill="none" xmlns="http://www.w3.org/2000/svg">
<path d="M5.55584 29.1921C4.83593 29.1921 4.21591 28.932 3.69577 28.4119C3.17561 27.8917 2.91553 27.2717 2.91553 26.5518V8.44836C2.91553 7.72687 3.17561 7.10547 3.69577 6.58417C4.21591 6.06289 4.83593 5.80225 5.55584 5.80225H29.444C30.1655 5.80225 30.7869 6.06289 31.3082 6.58417C31.8295 7.10547 32.0901 7.72687 32.0901 8.44836V26.5518C32.0901 27.2717 31.8295 27.8917 31.3082 28.4119C30.7869 28.932 30.1655 29.1921 29.444 29.1921H5.55584ZM17.4999 18.6435L29.444 10.8596V8.44836L17.4999 16.1046L5.55584 8.44836V10.8596L17.4999 18.6435Z" fill="white"/>
</svg>
