<svg width="149" height="145" viewBox="0 0 149 145" fill="none" xmlns="http://www.w3.org/2000/svg">
<g clip-path="url(#clip0_8_502)">
<path d="M124.167 60.0232C124.167 33.493 101.941 12.0046 74.5 12.0046C47.0592 12.0046 24.8334 33.493 24.8334 60.0232C24.8334 72.208 29.5517 83.2522 37.25 91.7155V138.053L74.5 126.049L111.75 138.053V91.7155C119.448 83.2522 124.167 72.208 124.167 60.0232ZM74.5 24.0093C95.0496 24.0093 111.75 40.1555 111.75 60.0232C111.75 79.8909 95.0496 96.0372 74.5 96.0372C53.9505 96.0372 37.25 79.8909 37.25 60.0232C37.25 40.1555 53.9505 24.0093 74.5 24.0093ZM74.5 114.044L49.6667 120.167V101.559C56.9925 105.641 65.4359 108.042 74.5 108.042C83.5642 108.042 92.0075 105.641 99.3334 101.559V120.167L74.5 114.044Z" fill="#DBCA72"/>
<path d="M60.232 58.504V62.664L45 68.456V64.456L55.656 60.584L45 56.68V52.712L60.232 58.504Z" fill="#DBCA72"/>
<path d="M75.9643 58.504C77.9269 58.824 79.4309 59.56 80.4762 60.712C81.5216 61.8427 82.0443 63.2507 82.0443 64.936C82.0443 66.2373 81.7029 67.4427 81.0203 68.552C80.3376 69.64 79.2923 70.5147 77.8843 71.176C76.4976 71.8373 74.7909 72.168 72.7642 72.168C71.1856 72.168 69.6283 71.9653 68.0923 71.56C66.5776 71.1333 65.2869 70.536 64.2202 69.768L66.2362 65.8C67.0896 66.44 68.0709 66.9413 69.1803 67.304C70.3109 67.6453 71.4629 67.816 72.6363 67.816C73.9376 67.816 74.9616 67.5707 75.7083 67.08C76.4549 66.568 76.8283 65.8533 76.8283 64.936C76.8283 63.1013 75.4309 62.184 72.6363 62.184H70.2682V58.76L74.8763 53.544H65.3403V49.384H81.0203V52.744L75.9643 58.504Z" fill="#DBCA72"/>
<path d="M96.1178 72.168C94.2618 72.168 92.6084 71.7093 91.1577 70.792C89.7071 69.8747 88.5658 68.552 87.7337 66.824C86.9231 65.0747 86.5177 62.9947 86.5177 60.584C86.5177 58.1733 86.9231 56.104 87.7337 54.376C88.5658 52.6267 89.7071 51.2933 91.1577 50.376C92.6084 49.4587 94.2618 49 96.1178 49C97.9738 49 99.6271 49.4587 101.078 50.376C102.528 51.2933 103.659 52.6267 104.47 54.376C105.302 56.104 105.718 58.1733 105.718 60.584C105.718 62.9947 105.302 65.0747 104.47 66.824C103.659 68.552 102.528 69.8747 101.078 70.792C99.6271 71.7093 97.9738 72.168 96.1178 72.168ZM96.1178 67.784C97.4831 67.784 98.5498 67.1973 99.3177 66.024C100.107 64.8507 100.502 63.0373 100.502 60.584C100.502 58.1307 100.107 56.3173 99.3177 55.144C98.5498 53.9707 97.4831 53.384 96.1178 53.384C94.7738 53.384 93.7071 53.9707 92.9178 55.144C92.1497 56.3173 91.7658 58.1307 91.7658 60.584C91.7658 63.0373 92.1497 64.8507 92.9178 66.024C93.7071 67.1973 94.7738 67.784 96.1178 67.784Z" fill="#DBCA72"/>
</g>
<defs>
<clipPath id="clip0_8_502">
<rect width="149" height="144.056" fill="white"/>
</clipPath>
</defs>
</svg>
