<svg width="145" height="145" viewBox="0 0 145 145" fill="none" xmlns="http://www.w3.org/2000/svg">
<path d="M140.469 138.203C140.469 138.501 140.41 138.795 140.297 139.07C140.183 139.345 140.016 139.595 139.806 139.806C139.595 140.016 139.345 140.183 139.07 140.297C138.795 140.41 138.501 140.469 138.203 140.469H6.79688C6.4993 140.469 6.20461 140.41 5.92966 140.297C5.6547 140.183 5.40487 140.016 5.19446 139.806C4.98404 139.595 4.81716 139.345 4.70336 139.07C4.58957 138.795 4.53108 138.501 4.53125 138.203V6.79688C4.53125 6.19599 4.76995 5.61972 5.19484 5.19484C5.61972 4.76995 6.19599 4.53125 6.79688 4.53125C7.39776 4.53125 7.97403 4.76995 8.39891 5.19484C8.8238 5.61972 9.0625 6.19599 9.0625 6.79688V135.938H138.203C138.501 135.937 138.795 135.996 139.07 136.11C139.345 136.223 139.595 136.39 139.806 136.601C140.016 136.811 140.183 137.061 140.297 137.336C140.41 137.611 140.469 137.906 140.469 138.203ZM40.7812 92.8906C40.7812 92.2897 40.5426 91.7135 40.1177 91.2886C39.6928 90.8637 39.1165 90.625 38.5156 90.625H20.3906C19.7897 90.625 19.2135 90.8637 18.7886 91.2886C18.3637 91.7135 18.125 92.2897 18.125 92.8906V131.406H40.7812V92.8906ZM47.5781 67.9688V131.406H70.2344V67.9688C70.2344 67.3679 69.9957 66.7916 69.5708 66.3667C69.1459 65.9418 68.5696 65.7031 67.9688 65.7031H49.8438C49.2429 65.7031 48.6666 65.9418 48.2417 66.3667C47.8168 66.7916 47.5781 67.3679 47.5781 67.9688ZM77.0312 81.5625V131.406H99.6875V81.5625C99.6875 80.9616 99.4488 80.3853 99.0239 79.9605C98.599 79.5356 98.0228 79.2969 97.4219 79.2969H79.2969C78.696 79.2969 78.1197 79.5356 77.6948 79.9605C77.2699 80.3853 77.0312 80.9616 77.0312 81.5625ZM126.875 49.8438H108.75C108.149 49.8438 107.573 50.0824 107.148 50.5073C106.723 50.9322 106.484 51.5085 106.484 52.1094V131.406H129.141V52.1094C129.141 51.5085 128.902 50.9322 128.477 50.5073C128.052 50.0824 127.476 49.8438 126.875 49.8438ZM79.2289 47.6688L69.9398 43.3641C69.587 44.8518 68.9399 46.2538 68.0367 47.4875L77.3258 51.7922C77.6787 50.3045 78.3258 48.9025 79.2289 47.6688ZM97.8297 48.1219L124.609 21.3422V31.7188C124.609 32.3196 124.848 32.8959 125.273 33.3208C125.698 33.7457 126.274 33.9844 126.875 33.9844C127.476 33.9844 128.052 33.7457 128.477 33.3208C128.902 32.8959 129.141 32.3196 129.141 31.7188V15.8594C129.141 15.5618 129.082 15.2671 128.969 14.9922C128.855 14.7172 128.688 14.4674 128.477 14.257C128.267 14.0465 128.017 13.8797 127.742 13.7659C127.467 13.6521 127.173 13.5936 126.875 13.5938H111.016C110.415 13.5938 109.838 13.8324 109.414 14.2573C108.989 14.6822 108.75 15.2585 108.75 15.8594C108.75 16.4603 108.989 17.0365 109.414 17.4614C109.838 17.8863 110.415 18.125 111.016 18.125H121.392L94.6125 44.9047C95.8791 45.7635 96.9709 46.8553 97.8297 48.1219ZM39.3992 60.2656L51.9055 49.6852C50.7065 48.7333 49.7059 47.5556 48.9602 46.2188L36.4539 56.7992C37.6528 57.7511 38.6535 58.9287 39.3992 60.2656ZM29.4531 72.5C30.7974 72.5 32.1115 72.1014 33.2293 71.3545C34.347 70.6077 35.2182 69.5461 35.7326 68.3042C36.2471 67.0622 36.3817 65.6956 36.1194 64.3771C35.8571 63.0587 35.2098 61.8476 34.2592 60.897C33.3087 59.9464 32.0976 59.2991 30.7791 59.0368C29.4607 58.7746 28.094 58.9092 26.8521 59.4236C25.6101 59.9381 24.5486 60.8092 23.8017 61.927C23.0549 63.0447 22.6562 64.3588 22.6562 65.7031C22.6582 67.5052 23.3749 69.2328 24.6492 70.5071C25.9234 71.7813 27.6511 72.498 29.4531 72.5ZM88.3594 61.1719C89.7037 61.1719 91.0178 60.7732 92.1355 60.0264C93.2533 59.2795 94.1244 58.218 94.6389 56.9761C95.1533 55.7341 95.2879 54.3675 95.0257 53.049C94.7634 51.7305 94.1161 50.5194 93.1655 49.5689C92.2149 48.6183 91.0038 47.971 89.6854 47.7087C88.3669 47.4465 87.0003 47.5811 85.7583 48.0955C84.5164 48.6099 83.4548 49.4811 82.708 50.5989C81.9611 51.7166 81.5625 53.0307 81.5625 54.375C81.5645 56.177 82.2812 57.9047 83.5554 59.1789C84.8297 60.4532 86.5573 61.1699 88.3594 61.1719ZM58.9062 47.5781C60.2505 47.5781 61.5646 47.1795 62.6824 46.4326C63.8001 45.6858 64.6713 44.6243 65.1857 43.3823C65.7002 42.1403 65.8348 40.7737 65.5725 39.4552C65.3103 38.1368 64.6629 36.9257 63.7124 35.9751C62.7618 35.0246 61.5507 34.3772 60.2323 34.115C58.9138 33.8527 57.5472 33.9873 56.3052 34.5018C55.0632 35.0162 54.0017 35.8874 53.2549 37.0051C52.508 38.1229 52.1094 39.437 52.1094 40.7812C52.1113 42.5833 52.8281 44.311 54.1023 45.5852C55.3765 46.8594 57.1042 47.5762 58.9062 47.5781Z" fill="#D2C26F"/>
</svg>
