<svg width="181" height="181" viewBox="0 0 181 181" fill="none" xmlns="http://www.w3.org/2000/svg">
<g clip-path="url(#clip0_8_499)">
<path d="M67.8749 103.698C50.2274 103.698 15.0833 112.522 15.0833 130.094V143.292H120.667V130.094C120.667 112.522 85.5224 103.698 67.8749 103.698ZM32.7308 128.208C39.0658 123.834 54.3753 118.781 67.8749 118.781C81.3745 118.781 96.6841 123.834 103.019 128.208H32.7308ZM67.8749 90.5C82.4303 90.5 94.2708 78.6596 94.2708 64.1042C94.2708 49.5488 82.4303 37.7084 67.8749 37.7084C53.3195 37.7084 41.4791 49.5488 41.4791 64.1042C41.4791 78.6596 53.3195 90.5 67.8749 90.5ZM67.8749 52.7917C74.1345 52.7917 79.1874 57.8446 79.1874 64.1042C79.1874 70.3638 74.1345 75.4167 67.8749 75.4167C61.6153 75.4167 56.5624 70.3638 56.5624 64.1042C56.5624 57.8446 61.6153 52.7917 67.8749 52.7917ZM120.968 104.15C129.717 110.485 135.75 118.932 135.75 130.094V143.292H165.917V130.094C165.917 114.86 139.521 106.187 120.968 104.15ZM113.125 90.5C127.68 90.5 139.521 78.6596 139.521 64.1042C139.521 49.5488 127.68 37.7084 113.125 37.7084C109.052 37.7084 105.282 38.6888 101.812 40.348C106.564 47.06 109.354 55.2805 109.354 64.1042C109.354 72.928 106.564 81.1484 101.812 87.8605C105.282 89.5196 109.052 90.5 113.125 90.5Z" fill="#DBCA72"/>
</g>
<defs>
<clipPath id="clip0_8_499">
<rect width="181" height="181" fill="white"/>
</clipPath>
</defs>
</svg>
