<svg width="170" height="170" viewBox="0 0 170 170" fill="none" xmlns="http://www.w3.org/2000/svg">
<path d="M34.5312 37.1875V53.125C34.5312 53.8295 34.8111 54.5051 35.3092 55.0033C35.8074 55.5014 36.483 55.7812 37.1875 55.7812H53.125C53.8295 55.7812 54.5051 55.5014 55.0033 55.0033C55.5014 54.5051 55.7812 53.8295 55.7812 53.125V37.1875C55.7812 36.483 55.5014 35.8074 55.0033 35.3092C54.5051 34.8111 53.8295 34.5312 53.125 34.5312H37.1875C36.483 34.5312 35.8074 34.8111 35.3092 35.3092C34.8111 35.8074 34.5312 36.483 34.5312 37.1875ZM39.8438 39.8438H50.4688V50.4688H39.8438V39.8438Z" fill="#B8A74D"/>
<path d="M34.5312 85C34.5312 85.7045 34.8111 86.3801 35.3092 86.8783C35.8074 87.3764 36.483 87.6562 37.1875 87.6562H53.125C53.8295 87.6562 54.5051 87.3764 55.0033 86.8783C55.5014 86.3801 55.7812 85.7045 55.7812 85C55.7812 84.2955 55.5014 83.6199 55.0033 83.1217C54.5051 82.6236 53.8295 82.3438 53.125 82.3438H37.1875C36.483 82.3438 35.8074 82.6236 35.3092 83.1217C34.8111 83.6199 34.5312 84.2955 34.5312 85Z" fill="#B8A74D"/>
<path d="M31.875 21.25C33.342 21.25 34.5312 20.0608 34.5312 18.5938C34.5312 17.1267 33.342 15.9375 31.875 15.9375C30.408 15.9375 29.2188 17.1267 29.2188 18.5938C29.2188 20.0608 30.408 21.25 31.875 21.25Z" fill="#B8A74D"/>
<path d="M42.5 21.25C43.967 21.25 45.1562 20.0608 45.1562 18.5938C45.1562 17.1267 43.967 15.9375 42.5 15.9375C41.033 15.9375 39.8438 17.1267 39.8438 18.5938C39.8438 20.0608 41.033 21.25 42.5 21.25Z" fill="#B8A74D"/>
<path d="M69.0625 135.469C66.9491 135.469 64.9222 136.308 63.4277 137.803C61.9333 139.297 61.0938 141.324 61.0938 143.438C61.0938 145.551 61.9333 147.578 63.4277 149.072C64.9222 150.567 66.9491 151.406 69.0625 151.406H87.6562C89.7697 151.406 91.7966 150.567 93.291 149.072C94.7854 147.578 95.625 145.551 95.625 143.438C95.625 141.324 94.7854 139.297 93.291 137.803C91.7966 136.308 89.7697 135.469 87.6562 135.469H69.0625ZM90.3125 143.438C90.3125 144.142 90.0326 144.818 89.5345 145.316C89.0364 145.814 88.3607 146.094 87.6562 146.094H69.0625C68.358 146.094 67.6824 145.814 67.1842 145.316C66.6861 144.818 66.4062 144.142 66.4062 143.438C66.4062 142.733 66.6861 142.057 67.1842 141.559C67.6824 141.061 68.358 140.781 69.0625 140.781H87.6562C88.3607 140.781 89.0364 141.061 89.5345 141.559C90.0326 142.057 90.3125 142.733 90.3125 143.438Z" fill="#B8A74D"/>
<path d="M37.1875 119.531H53.125C53.8295 119.531 54.5051 119.251 55.0033 118.753C55.5014 118.255 55.7812 117.579 55.7812 116.875V100.938C55.7812 100.233 55.5014 99.5574 55.0033 99.0592C54.5051 98.5611 53.8295 98.2812 53.125 98.2812H37.1875C36.483 98.2812 35.8074 98.5611 35.3092 99.0592C34.8111 99.5574 34.5312 100.233 34.5312 100.938V116.875C34.5312 117.579 34.8111 118.255 35.3092 118.753C35.8074 119.251 36.483 119.531 37.1875 119.531ZM39.8438 103.594H50.4688V114.219H39.8438V103.594Z" fill="#B8A74D"/>
<path d="M61.0938 53.125C61.0938 53.8295 61.3736 54.5051 61.8717 55.0033C62.3699 55.5014 63.0455 55.7812 63.75 55.7812H100.938C101.642 55.7812 102.318 55.5014 102.816 55.0033C103.314 54.5051 103.594 53.8295 103.594 53.125C103.594 52.4205 103.314 51.7449 102.816 51.2467C102.318 50.7486 101.642 50.4688 100.938 50.4688H63.75C63.0455 50.4688 62.3699 50.7486 61.8717 51.2467C61.3736 51.7449 61.0938 52.4205 61.0938 53.125Z" fill="#B8A74D"/>
<path d="M106.25 85C106.25 84.2955 105.97 83.6199 105.472 83.1217C104.974 82.6236 104.298 82.3438 103.594 82.3438H63.75C63.0455 82.3438 62.3699 82.6236 61.8717 83.1217C61.3736 83.6199 61.0938 84.2955 61.0938 85C61.0938 85.7045 61.3736 86.3801 61.8717 86.8783C62.3699 87.3764 63.0455 87.6562 63.75 87.6562H103.594C104.298 87.6562 104.974 87.3764 105.472 86.8783C105.97 86.3801 106.25 85.7045 106.25 85Z" fill="#B8A74D"/>
<path d="M98.2812 116.875C98.2812 116.171 98.0014 115.495 97.5033 114.997C97.0051 114.499 96.3295 114.219 95.625 114.219H63.75C63.0455 114.219 62.3699 114.499 61.8717 114.997C61.3736 115.495 61.0938 116.171 61.0938 116.875C61.0938 117.579 61.3736 118.255 61.8717 118.753C62.3699 119.251 63.0455 119.531 63.75 119.531H95.625C96.3295 119.531 97.0051 119.251 97.5033 118.753C98.0014 118.255 98.2812 117.579 98.2812 116.875Z" fill="#B8A74D"/>
<path d="M65.4766 65.7688C65.7417 65.542 65.9595 65.2653 66.1177 64.9544C66.2758 64.6434 66.3712 64.3044 66.3983 63.9566C66.4255 63.6088 66.3838 63.2591 66.2758 62.9274C66.1678 62.5957 65.9955 62.2886 65.7688 62.0234C65.542 61.7583 65.2653 61.5405 64.9544 61.3823C64.6434 61.2242 64.3044 61.1288 63.9566 61.1017C63.6088 61.0745 63.2591 61.1162 62.9274 61.2242C62.5957 61.3322 62.2885 61.5045 62.0234 61.7313L45.5812 75.8359L39.3125 67.4688C39.1032 67.1897 38.841 66.9546 38.5408 66.7769C38.2407 66.5992 37.9085 66.4823 37.5632 66.433C37.2178 66.3836 36.8662 66.4028 36.5283 66.4894C36.1904 66.5759 35.8728 66.7282 35.5937 66.9375C35.3147 67.1468 35.0796 67.409 34.9019 67.7092C34.7241 68.0093 34.6073 68.3415 34.5579 68.6869C34.5086 69.0322 34.5278 69.3838 34.6144 69.7217C34.7009 70.0597 34.8532 70.3772 35.0625 70.6563L43.0313 81.2813C43.25 81.5697 43.5255 81.8104 43.8406 81.9886C44.1558 82.1667 44.5041 82.2785 44.8641 82.3172H45.1562C45.7894 82.3172 46.4017 82.0912 46.8828 81.6797L65.4766 65.7688Z" fill="#B8A74D"/>
<path d="M85 45.1562C85.7045 45.1562 86.3801 44.8764 86.8783 44.3783C87.3764 43.8801 87.6562 43.2045 87.6562 42.5C87.6562 41.7955 87.3764 41.1199 86.8783 40.6217C86.3801 40.1236 85.7045 39.8438 85 39.8438H69.0625C68.358 39.8438 67.6824 40.1236 67.1842 40.6217C66.6861 41.1199 66.4062 41.7955 66.4062 42.5C66.4062 43.2045 66.6861 43.8801 67.1842 44.3783C67.6824 44.8764 68.358 45.1562 69.0625 45.1562H85Z" fill="#B8A74D"/>
<path d="M69.0625 71.7188C68.358 71.7188 67.6824 71.9986 67.1842 72.4967C66.6861 72.9949 66.4062 73.6705 66.4062 74.375C66.4062 75.0795 66.6861 75.7551 67.1842 76.2533C67.6824 76.7514 68.358 77.0312 69.0625 77.0312H85C85.7045 77.0312 86.3801 76.7514 86.8783 76.2533C87.3764 75.7551 87.6562 75.0795 87.6562 74.375C87.6562 73.6705 87.3764 72.9949 86.8783 72.4967C86.3801 71.9986 85.7045 71.7188 85 71.7188H69.0625Z" fill="#B8A74D"/>
<path d="M157.967 27.6516C156.15 26.5724 153.983 26.2461 151.928 26.7424C149.874 27.2386 148.095 28.5181 146.97 30.3078L107.631 93.5797C107.396 93.956 107.259 94.3853 107.233 94.8281L106.25 112.598C106.219 113.093 106.327 113.587 106.561 114.023C106.796 114.46 107.148 114.822 107.578 115.069C107.983 115.298 108.441 115.417 108.906 115.414C109.424 115.418 109.932 115.27 110.367 114.989L125.216 105.161C125.592 104.923 125.903 104.594 126.119 104.205L151.141 57.3219C151.475 56.6984 151.548 55.9676 151.344 55.2901C151.14 54.6126 150.675 54.044 150.051 53.7094C149.428 53.3748 148.697 53.3015 148.02 53.5058C147.342 53.71 146.774 54.175 146.439 54.7985L121.656 101.097L111.775 107.631L112.492 95.811L151.406 33.2031C151.783 32.555 152.402 32.0832 153.127 31.8914C153.852 31.6996 154.623 31.8036 155.271 32.1805C155.919 32.5574 156.391 33.1763 156.583 33.9011C156.775 34.6259 156.671 35.3972 156.294 36.0453L151.406 45.4219C151.213 45.7306 151.085 46.0757 151.031 46.4358C150.977 46.796 150.997 47.1634 151.091 47.5152C151.185 47.8671 151.35 48.1959 151.576 48.4813C151.803 48.7666 152.085 49.0024 152.406 49.174C152.728 49.3455 153.081 49.4492 153.444 49.4786C153.807 49.5079 154.172 49.4623 154.516 49.3446C154.861 49.2269 155.178 49.0396 155.447 48.7943C155.716 48.549 155.932 48.251 156.081 47.9188L161.101 38.5422C162.1 36.6761 162.331 34.4943 161.745 32.4606C161.16 30.4269 159.804 28.7016 157.967 27.6516Z" fill="#B8A74D"/>
<path d="M21.25 85C21.9545 85 22.6301 84.7201 23.1283 84.222C23.6264 83.7239 23.9062 83.0482 23.9062 82.3438V15.9375C23.9062 14.5285 24.466 13.1773 25.4622 12.181C26.4585 11.1847 27.8098 10.625 29.2188 10.625H124.844C126.253 10.625 127.604 11.1847 128.6 12.181C129.597 13.1773 130.156 14.5285 130.156 15.9375V39.5516C130.156 40.256 130.436 40.9317 130.934 41.4298C131.432 41.928 132.108 42.2078 132.812 42.2078C133.517 42.2078 134.193 41.928 134.691 41.4298C135.189 40.9317 135.469 40.256 135.469 39.5516V15.9375C135.469 13.1196 134.349 10.4171 132.357 8.42449C130.364 6.43192 127.662 5.3125 124.844 5.3125H29.2188C26.4008 5.3125 23.6983 6.43192 21.7057 8.42449C19.7132 10.4171 18.5938 13.1196 18.5938 15.9375V82.3438C18.5938 83.0482 18.8736 83.7239 19.3717 84.222C19.8699 84.7201 20.5455 85 21.25 85Z" fill="#B8A74D"/>
<path d="M132.812 101.787C132.108 101.787 131.432 102.067 130.934 102.565C130.436 103.064 130.156 103.739 130.156 104.444V154.062C130.156 155.471 129.597 156.823 128.6 157.819C127.604 158.815 126.253 159.375 124.844 159.375H29.2188C27.8098 159.375 26.4585 158.815 25.4622 157.819C24.466 156.823 23.9062 155.471 23.9062 154.062V92.9688C23.9062 92.2643 23.6264 91.5886 23.1283 91.0905C22.6301 90.5924 21.9545 90.3125 21.25 90.3125C20.5455 90.3125 19.8699 90.5924 19.3717 91.0905C18.8736 91.5886 18.5938 92.2643 18.5938 92.9688V154.062C18.5938 156.88 19.7132 159.583 21.7057 161.576C23.6983 163.568 26.4008 164.688 29.2188 164.688H124.844C127.662 164.688 130.364 163.568 132.357 161.576C134.349 159.583 135.469 156.88 135.469 154.062V104.444C135.469 103.739 135.189 103.064 134.691 102.565C134.193 102.067 133.517 101.787 132.812 101.787Z" fill="#B8A74D"/>
</svg>
