<svg width="173" height="173" viewBox="0 0 173 173" fill="none" xmlns="http://www.w3.org/2000/svg">
<path d="M166.891 33.3295L142.563 6.29828C142.31 6.01826 142.002 5.79423 141.657 5.64061C141.313 5.48697 140.94 5.40714 140.562 5.40625H51.3594C47.7748 5.40625 44.3369 6.8302 41.8025 9.3649C39.2678 11.8996 37.8438 15.3373 37.8438 18.9219V59.4688H13.5156C11.3669 59.4752 9.30794 60.3316 7.78851 61.851C6.26911 63.3704 5.41266 65.4294 5.40625 67.5781V159.484C5.41266 161.633 6.26911 163.692 7.78851 165.211C9.30794 166.731 11.3669 167.587 13.5156 167.594H154.078C157.663 167.594 161.101 166.17 163.635 163.635C166.17 161.101 167.594 157.663 167.594 154.078V35.1406C167.6 34.4692 167.348 33.8212 166.891 33.3295ZM143.266 15.1645L158.809 32.4375H145.969C145.252 32.4375 144.564 32.1526 144.057 31.6458C143.551 31.1389 143.266 30.4512 143.266 29.7344V15.1645ZM75.6875 159.484C75.6875 160.201 75.4026 160.889 74.8958 161.396C74.3889 161.903 73.7012 162.188 72.9844 162.188H13.5156C12.7987 162.188 12.1112 161.903 11.6042 161.396C11.0973 160.889 10.8125 160.201 10.8125 159.484V67.5781C10.8125 66.8613 11.0973 66.1736 11.6042 65.6667C12.1112 65.1599 12.7987 64.875 13.5156 64.875H72.9844C73.7012 64.875 74.3889 65.1599 74.8958 65.6667C75.4026 66.1736 75.6875 66.8613 75.6875 67.5781V159.484ZM162.188 154.078C162.181 156.227 161.325 158.286 159.805 159.805C158.286 161.325 156.227 162.181 154.078 162.188H80.6072C80.9218 161.321 81.0865 160.406 81.0938 159.484V67.5781C81.0873 65.4294 80.2309 63.3704 78.7115 61.851C77.1921 60.3316 75.1331 59.4752 72.9844 59.4688H43.25V18.9219C43.2565 16.7731 44.1128 14.7142 45.6323 13.1948C47.1517 11.6754 49.2107 10.8189 51.3594 10.8125H137.859V29.7344C137.866 31.8831 138.722 33.9421 140.242 35.4615C141.761 36.9809 143.82 37.8373 145.969 37.8438H162.188V154.078Z" fill="#B8A74D"/>
<path d="M97.3125 32.4375H54.0625V37.8438H97.3125V32.4375Z" fill="#B8A74D"/>
<path d="M59.4688 21.625H54.0625V27.0312H59.4688V21.625Z" fill="#B8A74D"/>
<path d="M97.3125 21.625H64.875V27.0312H97.3125V21.625Z" fill="#B8A74D"/>
<path d="M151.375 48.6562H54.0625V54.0625H151.375V48.6562Z" fill="#B8A74D"/>
<path d="M151.375 59.4688H86.5V64.875H151.375V59.4688Z" fill="#B8A74D"/>
<path d="M64.875 102.719H21.625C20.1912 102.719 18.8161 103.288 17.8022 104.302C16.7883 105.316 16.2188 106.691 16.2188 108.125V151.375C16.2188 152.809 16.7883 154.184 17.8022 155.198C18.8161 156.212 20.1912 156.781 21.625 156.781H64.875C66.3087 156.781 67.6838 156.212 68.6978 155.198C69.7117 154.184 70.2812 152.809 70.2812 151.375V108.125C70.2812 106.691 69.7117 105.316 68.6978 104.302C67.6838 103.288 66.3087 102.719 64.875 102.719ZM64.875 118.938H54.0625V108.125H64.875V118.938ZM37.8438 135.156V124.344H48.6562V135.156H37.8438ZM48.6562 140.562V151.375H37.8438V140.562H48.6562ZM32.4375 135.156H21.625V124.344H32.4375V135.156ZM37.8438 118.938V108.125H48.6562V118.938H37.8438ZM54.0625 124.344H64.875V135.156H54.0625V124.344ZM32.4375 108.125V118.938H21.625V108.125H32.4375ZM21.625 140.562H32.4375V151.375H21.625V140.562ZM54.0625 151.375V140.562H64.875V151.375H54.0625Z" fill="#B8A74D"/>
<path d="M64.875 70.2812H21.625C20.1912 70.2812 18.8161 70.8508 17.8022 71.8647C16.7883 72.8787 16.2188 74.2538 16.2188 75.6875V91.9062C16.2188 93.34 16.7883 94.7151 17.8022 95.729C18.8161 96.743 20.1912 97.3125 21.625 97.3125H64.875C66.3087 97.3125 67.6838 96.743 68.6978 95.729C69.7117 94.7151 70.2812 93.34 70.2812 91.9062V75.6875C70.2812 74.2538 69.7117 72.8787 68.6978 71.8647C67.6838 70.8508 66.3087 70.2812 64.875 70.2812ZM64.875 91.9062H21.625V75.6875H64.875V91.9062Z" fill="#B8A74D"/>
<path d="M56.7656 81.0938H51.3594V86.5H56.7656V81.0938Z" fill="#B8A74D"/>
<path d="M45.9531 81.0938H40.5469V86.5H45.9531V81.0938Z" fill="#B8A74D"/>
<path d="M35.1406 81.0938H29.7344V86.5H35.1406V81.0938Z" fill="#B8A74D"/>
<path d="M118.938 97.3125H124.344C125.061 97.3125 125.748 97.5974 126.255 98.1042C126.762 98.6111 127.047 99.2988 127.047 100.016H132.453C132.453 97.865 131.599 95.8023 130.078 94.2815C128.557 92.7607 126.494 91.9062 124.344 91.9062V89.2031H118.938V91.9062C116.787 91.9062 114.724 92.7607 113.203 94.2815C111.683 95.8023 110.828 97.865 110.828 100.016C110.828 102.166 111.683 104.229 113.203 105.75C114.724 107.271 116.787 108.125 118.938 108.125H124.344C125.061 108.125 125.748 108.41 126.255 108.917C126.762 109.424 127.047 110.111 127.047 110.828C127.047 111.545 126.762 112.233 126.255 112.74C125.748 113.246 125.061 113.531 124.344 113.531H118.938C118.221 113.531 117.533 113.246 117.026 112.74C116.519 112.233 116.234 111.545 116.234 110.828H110.828C110.828 112.979 111.683 115.041 113.203 116.562C114.724 118.083 116.787 118.938 118.938 118.938V121.641H124.344V118.938C126.494 118.938 128.557 118.083 130.078 116.562C131.599 115.041 132.453 112.979 132.453 110.828C132.453 108.678 131.599 106.615 130.078 105.094C128.557 103.573 126.494 102.719 124.344 102.719H118.938C118.221 102.719 117.533 102.434 117.026 101.927C116.519 101.42 116.234 100.732 116.234 100.016C116.234 99.2988 116.519 98.6111 117.026 98.1042C117.533 97.5974 118.221 97.3125 118.938 97.3125Z" fill="#B8A74D"/>
<path d="M121.641 78.3906C116.294 78.3906 111.068 79.976 106.623 82.9462C102.178 85.9164 98.713 90.1381 96.667 95.0776C94.621 100.017 94.0858 105.452 95.1289 110.695C96.1718 115.939 98.7462 120.755 102.527 124.536C106.307 128.316 111.124 130.891 116.367 131.934C121.611 132.977 127.046 132.442 131.985 130.396C136.924 128.35 141.146 124.885 144.116 120.44C147.086 115.994 148.672 110.768 148.672 105.422C148.664 98.2551 145.814 91.3843 140.746 86.3165C135.678 81.2489 128.807 78.3985 121.641 78.3906ZM121.641 127.047C117.364 127.047 113.183 125.779 109.626 123.403C106.07 121.026 103.299 117.649 101.662 113.697C100.025 109.746 99.5966 105.398 100.431 101.203C101.266 97.0081 103.325 93.1551 106.35 90.1306C109.374 87.1063 113.227 85.0468 117.422 84.2123C121.617 83.3779 125.965 83.8063 129.916 85.4431C133.868 87.0798 137.245 89.8513 139.621 93.4076C141.997 96.9638 143.266 101.145 143.266 105.422C143.259 111.155 140.979 116.652 136.925 120.706C132.871 124.76 127.374 127.04 121.641 127.047Z" fill="#B8A74D"/>
</svg>
