<svg width="153" height="133" viewBox="0 0 153 133" fill="none" xmlns="http://www.w3.org/2000/svg">
<path d="M134.969 34.6204C133.806 33.4542 131.918 33.4542 130.751 34.6204C129.588 35.7837 129.588 37.6718 130.751 38.838C131.918 40.0013 133.806 40.0013 134.969 38.838C136.135 37.6718 136.135 35.7837 134.969 34.6204Z" fill="#B8A74D"/>
<path d="M21.9646 38.158C20.7984 36.9918 18.9103 36.9918 17.747 38.158C16.5808 39.3213 16.5808 41.2123 17.747 42.3756C18.9103 43.5419 20.7984 43.5419 21.9646 42.3756C23.1279 41.2123 23.1279 39.3213 21.9646 38.158Z" fill="#B8A74D"/>
<path d="M151.842 34.6213L118.096 0.873347C116.932 -0.291116 115.044 -0.291116 113.878 0.873347C110.795 3.95601 96.1898 18.5613 93.2085 21.5429L78.7825 27.4851L59.1011 24.6739L38.8385 4.41148C37.8846 3.457 36.7613 3.5441 36.7291 3.53753C35.938 3.53753 35.1795 3.85192 34.62 4.41118L0.873198 38.1576C-0.290668 39.3218 -0.291563 41.2114 0.873496 42.3761L21.2003 62.7L23.5233 74.3124L18.6784 79.1572C14.598 83.2332 14.5923 89.8396 18.676 93.9194C20.6491 95.8946 23.2981 97.0072 26.1719 96.977C26.1439 99.6872 27.1592 102.406 29.2221 104.469C31.2581 106.503 33.9312 107.52 36.6047 107.52C36.6429 107.52 36.6807 107.517 36.7189 107.517C36.6897 110.228 37.7047 112.949 39.7682 115.015C41.7395 116.986 44.3607 118.072 47.1493 118.072C47.1872 118.072 47.2247 118.07 47.2623 118.069C47.2346 120.778 48.2499 123.497 50.3131 125.56C54.3836 129.627 61.0068 129.629 65.0774 125.559L66.1324 124.504L71.4029 129.777C75.483 133.857 82.0882 133.861 86.1683 129.777C88.2321 127.713 89.2474 124.993 89.2179 122.282C89.2555 122.282 89.2931 122.284 89.3306 122.284C92.0044 122.284 94.679 121.267 96.7159 119.232C98.7764 117.169 99.7908 114.452 99.7628 111.743C102.632 111.774 105.284 110.662 107.259 108.686C109.323 106.622 110.338 103.902 110.309 101.191C110.346 101.191 110.384 101.194 110.421 101.194C113.095 101.194 115.77 100.176 117.807 98.1412C121.875 94.0689 121.875 87.4457 117.806 83.3769L116.359 81.9303L130.966 59.7151L151.842 38.8395C153.007 37.6747 153.007 35.7861 151.842 34.6213ZM7.20109 40.2664L36.7291 10.7385L40.9476 14.957L26.1821 29.7224C25.0173 30.8872 25.0173 32.7759 26.1821 33.9409C27.3471 35.1057 29.2352 35.1057 30.4006 33.9409L45.166 19.1755L53.4766 27.486L23.9483 57.0113L7.20109 40.2664ZM29.22 89.7036C27.4814 91.4438 24.6534 91.462 22.8945 89.7012C21.1454 87.9536 21.1445 85.126 22.8951 83.3769C22.9005 83.3716 22.9049 83.3671 22.9097 83.3623C22.916 83.3561 22.9219 83.3501 22.9273 83.3447C22.9306 83.3414 22.9336 83.3385 22.9366 83.3355C23.1573 83.1147 24.3453 81.927 29.2233 77.049C30.9703 75.3 33.8 75.2991 35.5506 77.0502C37.3017 78.8011 37.2952 81.6317 35.5506 83.376C35.55 83.3766 35.5497 83.3769 35.5491 83.3775L29.22 89.7036ZM33.4394 100.249C31.6957 98.5054 31.6957 95.6661 33.4385 93.9215C33.4391 93.9209 33.44 93.92 33.4406 93.9194C33.4412 93.9188 33.4415 93.9185 33.4421 93.9179L39.7673 87.5954C39.7679 87.5948 39.7682 87.5945 39.7688 87.5939C39.7691 87.5936 39.7694 87.5933 39.7697 87.5927C41.5167 85.8463 44.3464 85.8458 46.0946 87.5939C47.8422 89.3415 47.8419 92.1751 46.0946 93.9224L39.7682 100.249C38.0245 101.993 35.184 101.993 33.4394 100.249ZM50.3119 110.796C48.5658 112.543 45.7346 112.545 43.9873 110.797C42.2427 109.051 42.2421 106.212 43.9864 104.468L50.314 98.14C52.061 96.3909 54.8907 96.39 56.6413 98.1412C58.3856 99.8852 58.3927 102.716 56.6413 104.467L50.3119 110.796ZM67.1859 115.013L60.8595 121.34C59.1154 123.084 56.2753 123.084 54.5307 121.34C52.7867 119.596 52.7867 116.758 54.5307 115.014L60.8601 108.685C62.5978 106.947 65.4356 106.935 67.1838 108.683C68.9185 110.421 68.9546 113.241 67.1859 115.013ZM113.589 93.9221C111.843 95.6661 109.005 95.667 107.261 93.9239C107.26 93.9236 107.26 93.9233 107.26 93.923L104.095 90.7583C102.93 89.5936 101.041 89.5936 99.8764 90.7583C98.7117 91.9231 98.7117 93.8118 99.8764 94.9765L103.041 98.1409C104.785 99.8849 104.785 102.723 103.04 104.468C101.293 106.217 98.4647 106.217 96.7165 104.468C96.7159 104.467 96.715 104.466 96.7144 104.466L93.55 101.304C92.3841 100.14 90.496 100.141 89.3315 101.306C88.1674 102.471 88.1683 104.36 89.3333 105.524L92.4962 108.684C94.2399 110.43 94.2399 113.269 92.4983 115.013C90.7522 116.757 87.9132 116.758 86.1686 115.014L83.0039 111.849C81.8389 110.684 79.9502 110.684 78.7854 111.849C77.6207 113.014 77.6207 114.902 78.7854 116.067L81.9501 119.232C83.6941 120.976 83.6941 123.813 81.9492 125.558C80.201 127.308 77.3716 127.308 75.6217 125.558L70.3505 120.285L71.4058 119.229C75.4749 115.152 75.497 108.568 71.4038 104.466C69.3409 102.404 66.623 101.389 63.9138 101.416C63.9424 98.5 62.8036 95.8663 60.8595 93.9221C58.8837 91.9463 56.2356 90.8368 53.3668 90.8654C53.3957 88.0053 52.2918 85.3542 50.3128 83.3751C48.3379 81.4009 45.6901 80.2919 42.8228 80.3208C42.8544 77.4311 41.7243 74.7869 39.7685 72.8314C36.8069 69.8699 32.5115 69.0568 28.823 70.3942L27.1858 62.209L58.7489 30.6486L67.9193 31.9586L64.9965 33.163C64.6326 33.3131 64.3021 33.5335 64.0235 33.8118L43.9855 53.8499C39.9155 57.9198 39.9155 64.5421 43.9855 68.6121C48.0683 72.6942 54.6664 72.696 58.7513 68.6115L66.1285 61.231C67.2938 60.0674 69.1879 60.0671 70.3496 61.2298C75.976 66.8555 84.2143 67.8443 90.7218 64.7282L110.417 84.423C110.422 84.4283 110.427 84.434 110.433 84.4394L113.588 87.5945C115.332 89.3385 115.332 92.1778 113.589 93.9221ZM112.052 77.6217L95.66 61.2295L97.7685 59.1213C98.9333 57.9565 98.9333 56.0678 97.7685 54.9031C96.6038 53.7383 94.7157 53.7383 93.55 54.9031C91.6956 56.6972 91.0958 57.5264 89.6188 58.5092C85.0534 61.5635 78.7189 61.1621 74.5684 57.0119C71.0819 53.5247 65.4046 53.5238 61.9115 57.0122L54.5331 64.3939C52.7816 66.145 49.956 66.1462 48.204 64.3939C46.46 62.6498 46.46 59.8121 48.204 58.0681L67.8203 38.4514L94.1928 27.5886L124.815 58.2112L112.052 77.6217ZM128.643 53.6017L99.1146 24.0731L107.552 15.6358L122.316 30.4001C123.481 31.5649 125.369 31.5649 126.534 30.4001C127.699 29.2354 127.699 27.3467 126.534 26.1816L111.77 11.4173L115.987 7.20034L145.515 36.7289L128.643 53.6017Z" fill="#B8A74D"/>
</svg>
