<svg width="159" height="159" viewBox="0 0 159 159" fill="none" xmlns="http://www.w3.org/2000/svg">
<path d="M86.9531 156.516H14.9062C14.2474 156.516 13.6154 156.254 13.1495 155.788C12.6836 155.322 12.4219 154.69 12.4219 154.031V4.96875C12.4219 4.30985 12.6836 3.67794 13.1495 3.21203C13.6154 2.74612 14.2474 2.48438 14.9062 2.48438H96.8906C97.5495 2.48452 98.1813 2.74635 98.6471 3.2123L130.944 35.5092C131.41 35.975 131.672 36.6068 131.672 37.2656V86.9531C131.672 87.612 131.41 88.2439 130.944 88.7098C130.478 89.1758 129.846 89.4375 129.188 89.4375C128.529 89.4375 127.897 89.1758 127.431 88.7098C126.965 88.2439 126.703 87.612 126.703 86.9531V38.2942L95.8621 7.45312H17.3906V151.547H86.9531C87.612 151.547 88.2439 151.809 88.7098 152.275C89.1758 152.74 89.4375 153.372 89.4375 154.031C89.4375 154.69 89.1758 155.322 88.7098 155.788C88.2439 156.254 87.612 156.516 86.9531 156.516Z" fill="#AEA15B"/>
<path d="M129.188 39.75H96.8906C96.2317 39.75 95.5998 39.4882 95.1339 39.0223C94.668 38.5564 94.4062 37.9245 94.4062 37.2656V4.96871C94.4064 4.47742 94.5521 3.9972 94.8251 3.58874C95.0981 3.18029 95.4861 2.86194 95.94 2.67395C96.3939 2.48595 96.8933 2.43676 97.3752 2.53257C97.857 2.62839 98.2996 2.86492 98.6471 3.21226L130.944 35.5091C131.291 35.8566 131.528 36.2992 131.624 36.7811C131.719 37.2629 131.67 37.7624 131.482 38.2162C131.294 38.6701 130.976 39.0581 130.567 39.3311C130.159 39.6041 129.679 39.7499 129.188 39.75ZM99.375 34.7812H123.19L99.375 10.966V34.7812Z" fill="#AEA15B"/>
<path d="M81.7111 79.5C81.23 79.5005 80.7591 79.3614 80.3556 79.0994C79.952 78.8374 79.6333 78.4639 79.4379 78.0243L70.6656 58.2884L61.8958 78.0243C61.6282 78.6265 61.1325 79.0978 60.5175 79.3345C59.9025 79.5712 59.2186 79.5538 58.6164 79.2863C58.0142 79.0188 57.5429 78.523 57.3062 77.908C57.0695 77.293 57.0868 76.6092 57.3543 76.0069L68.3949 51.1632C68.5899 50.7238 68.9083 50.3504 69.3114 50.0883C69.7144 49.8263 70.1848 49.6868 70.6656 49.6868C71.1464 49.6868 71.6168 49.8263 72.0199 50.0883C72.4229 50.3504 72.7413 50.7238 72.9363 51.1632L83.9794 76.0069C84.1473 76.385 84.2182 76.7991 84.1856 77.2115C84.153 77.6239 84.0179 78.0216 83.7926 78.3686C83.5673 78.7156 83.2589 79.0008 82.8954 79.1984C82.5319 79.3959 82.1248 79.4996 81.7111 79.5Z" fill="#AEA15B"/>
<path d="M78.0367 71.2195H63.2969C62.638 71.2195 62.0061 70.9577 61.5402 70.4918C61.0742 70.0259 60.8125 69.394 60.8125 68.7351C60.8125 68.0762 61.0742 67.4443 61.5402 66.9784C62.0061 66.5125 62.638 66.2507 63.2969 66.2507H78.0367C78.6956 66.2507 79.3275 66.5125 79.7934 66.9784C80.2593 67.4443 80.521 68.0762 80.521 68.7351C80.521 69.394 80.2593 70.0259 79.7934 70.4918C79.3275 70.9577 78.6956 71.2195 78.0367 71.2195Z" fill="#AEA15B"/>
<path d="M109.313 79.5001C108.934 79.5004 108.56 79.4141 108.22 79.2479C107.88 79.0817 107.582 78.84 107.35 78.5412L88.0289 53.6974C87.82 53.4408 87.6645 53.1451 87.5715 52.8276C87.4784 52.5101 87.4497 52.1773 87.4871 51.8485C87.5244 51.5198 87.627 51.2018 87.7889 50.9133C87.9508 50.6247 88.1687 50.3714 88.4298 50.1683C88.6909 49.9651 88.9899 49.8161 89.3094 49.73C89.6289 49.644 89.9623 49.6226 90.2901 49.6672C90.618 49.7117 90.9336 49.8213 91.2185 49.9895C91.5034 50.1577 91.7519 50.3811 91.9493 50.6466L111.27 75.4903C111.556 75.8572 111.732 76.2968 111.78 76.7592C111.828 77.2215 111.746 77.688 111.542 78.1057C111.338 78.5234 111.021 78.8755 110.627 79.122C110.233 79.3685 109.777 79.4995 109.313 79.5001Z" fill="#AEA15B"/>
<path d="M89.9889 79.5001C89.5241 79.4995 89.0688 79.3685 88.6747 79.122C88.2806 78.8755 87.9636 78.5234 87.7597 78.1057C87.5558 77.688 87.4731 77.2215 87.5211 76.7592C87.5691 76.2968 87.7459 75.8572 88.0313 75.4903L107.352 50.6466C107.55 50.3811 107.798 50.1577 108.083 49.9895C108.368 49.8213 108.684 49.7117 109.011 49.6672C109.339 49.6226 109.673 49.644 109.992 49.73C110.312 49.8161 110.611 49.9651 110.872 50.1683C111.133 50.3714 111.351 50.6247 111.513 50.9133C111.674 51.2018 111.777 51.5198 111.814 51.8485C111.852 52.1773 111.823 52.5101 111.73 52.8276C111.637 53.1451 111.481 53.4408 111.273 53.6974L91.9516 78.5412C91.7192 78.84 91.4215 79.0817 91.0813 79.2479C90.7412 79.4141 90.3675 79.5004 89.9889 79.5001Z" fill="#AEA15B"/>
<path d="M56.8649 54.6562H34.7812C34.1224 54.6562 33.4904 54.3945 33.0245 53.9286C32.5586 53.4627 32.2969 52.8308 32.2969 52.1719C32.2969 51.513 32.5586 50.8811 33.0245 50.4152C33.4904 49.9492 34.1224 49.6875 34.7812 49.6875H56.8649C57.5238 49.6875 58.1557 49.9492 58.6216 50.4152C59.0875 50.8811 59.3492 51.513 59.3492 52.1719C59.3492 52.8308 59.0875 53.4627 58.6216 53.9286C58.1557 54.3945 57.5238 54.6562 56.8649 54.6562Z" fill="#AEA15B"/>
<path d="M45.8218 79.5C45.1629 79.5 44.531 79.2383 44.0651 78.7723C43.5991 78.3064 43.3374 77.6745 43.3374 77.0156V52.1719C43.3374 51.513 43.5991 50.8811 44.0651 50.4152C44.531 49.9492 45.1629 49.6875 45.8218 49.6875C46.4807 49.6875 47.1126 49.9492 47.5785 50.4152C48.0444 50.8811 48.3062 51.513 48.3062 52.1719V77.0156C48.3062 77.6745 48.0444 78.3064 47.5785 78.7723C47.1126 79.2383 46.4807 79.5 45.8218 79.5Z" fill="#AEA15B"/>
<path d="M69.5625 96.8906H32.2969C31.638 96.8906 31.0061 96.6289 30.5402 96.163C30.0742 95.6971 29.8125 95.0651 29.8125 94.4062C29.8125 93.7474 30.0742 93.1154 30.5402 92.6495C31.0061 92.1836 31.638 91.9219 32.2969 91.9219H69.5625C70.2214 91.9219 70.8533 92.1836 71.3192 92.6495C71.7851 93.1154 72.0469 93.7474 72.0469 94.4062C72.0469 95.0651 71.7851 95.6971 71.3192 96.163C70.8533 96.6289 70.2214 96.8906 69.5625 96.8906Z" fill="#AEA15B"/>
<path d="M69.5625 109.312H32.2969C31.638 109.312 31.0061 109.051 30.5402 108.585C30.0742 108.119 29.8125 107.487 29.8125 106.828C29.8125 106.169 30.0742 105.537 30.5402 105.071C31.0061 104.605 31.638 104.344 32.2969 104.344H69.5625C70.2214 104.344 70.8533 104.605 71.3192 105.071C71.7851 105.537 72.0469 106.169 72.0469 106.828C72.0469 107.487 71.7851 108.119 71.3192 108.585C70.8533 109.051 70.2214 109.312 69.5625 109.312Z" fill="#AEA15B"/>
<path d="M57.1406 121.734H32.2969C31.638 121.734 31.0061 121.473 30.5402 121.007C30.0742 120.541 29.8125 119.909 29.8125 119.25C29.8125 118.591 30.0742 117.959 30.5402 117.493C31.0061 117.027 31.638 116.766 32.2969 116.766H57.1406C57.7995 116.766 58.4314 117.027 58.8973 117.493C59.3633 117.959 59.625 118.591 59.625 119.25C59.625 119.909 59.3633 120.541 58.8973 121.007C58.4314 121.473 57.7995 121.734 57.1406 121.734Z" fill="#AEA15B"/>
<path d="M116.766 156.516H106.828C106.169 156.516 105.537 156.254 105.071 155.788C104.605 155.322 104.344 154.69 104.344 154.031V148.031C102.3 147.452 100.333 146.634 98.4806 145.594L94.2299 149.84C93.764 150.306 93.1322 150.567 92.4734 150.567C91.8146 150.567 91.1828 150.306 90.717 149.84L83.6911 142.814C83.2254 142.348 82.9638 141.717 82.9638 141.058C82.9638 140.399 83.2254 139.767 83.6911 139.301L87.9369 135.053C86.8976 133.2 86.0796 131.231 85.4998 129.188H79.5C78.8411 129.188 78.2092 128.926 77.7433 128.46C77.2774 127.994 77.0156 127.362 77.0156 126.703V116.766C77.0156 116.107 77.2774 115.475 77.7433 115.009C78.2092 114.543 78.8411 114.281 79.5 114.281H85.4998C86.0796 112.237 86.8976 110.269 87.9369 108.416L83.6911 104.167C83.2254 103.701 82.9638 103.07 82.9638 102.411C82.9638 101.752 83.2254 101.12 83.6911 100.654L90.717 93.6286C91.1828 93.1629 91.8146 92.9013 92.4734 92.9013C93.1322 92.9013 93.764 93.1629 94.2299 93.6286L98.4806 97.8844C100.332 96.8412 102.3 96.0198 104.344 95.4373V89.4375C104.344 88.7786 104.605 88.1467 105.071 87.6808C105.537 87.2149 106.169 86.9531 106.828 86.9531H116.766C117.425 86.9531 118.056 87.2149 118.522 87.6808C118.988 88.1467 119.25 88.7786 119.25 89.4375V95.4373C121.293 96.0166 123.261 96.8346 125.113 97.8744L129.364 93.6286C129.83 93.1629 130.462 92.9013 131.12 92.9013C131.779 92.9013 132.411 93.1629 132.877 93.6286L139.903 100.654C140.368 101.12 140.63 101.752 140.63 102.411C140.63 103.07 140.368 103.701 139.903 104.167L135.647 108.416C136.69 110.268 137.511 112.237 138.094 114.281H144.094C144.753 114.281 145.385 114.543 145.85 115.009C146.316 115.475 146.578 116.107 146.578 116.766V126.703C146.578 127.362 146.316 127.994 145.85 128.46C145.385 128.926 144.753 129.188 144.094 129.188H138.094C137.514 131.231 136.696 133.2 135.657 135.053L139.903 139.301C140.368 139.767 140.63 140.399 140.63 141.058C140.63 141.717 140.368 142.348 139.903 142.814L132.877 149.84C132.411 150.306 131.779 150.567 131.12 150.567C130.462 150.567 129.83 150.306 129.364 149.84L125.113 145.584C123.261 146.624 121.293 147.442 119.25 148.022V154.031C119.25 154.69 118.988 155.322 118.522 155.788C118.056 156.254 117.425 156.516 116.766 156.516ZM109.312 151.547H114.281V146.081C114.281 145.509 114.479 144.953 114.841 144.51C115.203 144.066 115.708 143.761 116.269 143.647C119.07 143.077 121.734 141.97 124.114 140.387C124.592 140.07 125.165 139.928 125.735 139.985C126.306 140.042 126.839 140.295 127.245 140.7L131.118 144.573L134.631 141.06L130.758 137.187C130.352 136.782 130.099 136.249 130.041 135.678C129.984 135.108 130.125 134.535 130.442 134.057C132.029 131.677 133.137 129.01 133.704 126.206C133.819 125.644 134.124 125.139 134.569 124.777C135.014 124.415 135.57 124.217 136.144 124.219H141.609V119.25H136.144C135.571 119.251 135.015 119.053 134.571 118.691C134.126 118.329 133.821 117.824 133.707 117.263C133.14 114.46 132.033 111.796 130.447 109.417C130.13 108.939 129.989 108.366 130.046 107.795C130.104 107.225 130.357 106.692 130.763 106.287L134.636 102.413L131.123 98.9005L127.25 102.774C126.844 103.179 126.311 103.432 125.74 103.489C125.17 103.546 124.597 103.404 124.119 103.087C121.738 101.502 119.072 100.394 116.269 99.8247C115.708 99.7101 115.203 99.4052 114.841 98.9616C114.479 98.5179 114.281 97.9627 114.281 97.39V91.9219H109.312V97.3875C109.313 97.9602 109.115 98.5154 108.753 98.9591C108.39 99.4027 107.886 99.7076 107.325 99.8222C104.524 100.391 101.859 101.498 99.4793 103.082C99.0016 103.399 98.4289 103.541 97.8583 103.484C97.2878 103.427 96.7545 103.174 96.349 102.769L92.4759 98.8955L88.963 102.408L92.8361 106.282C93.2419 106.687 93.495 107.22 93.5525 107.79C93.61 108.361 93.4684 108.934 93.1516 109.412C91.5646 111.792 90.4566 114.459 89.8897 117.263C89.775 117.824 89.4698 118.329 89.0256 118.691C88.5814 119.053 88.0256 119.251 87.4525 119.25H81.9844V124.219H87.45C88.0232 124.218 88.5789 124.416 89.0231 124.778C89.4673 125.14 89.7725 125.645 89.8872 126.206C90.454 129.008 91.5611 131.673 93.1467 134.052C93.4634 134.53 93.6051 135.103 93.5476 135.673C93.4901 136.244 93.2369 136.777 92.8312 137.182L88.958 141.055L92.4709 144.568L96.3441 140.695C96.7496 140.29 97.2828 140.037 97.8534 139.98C98.4239 139.923 98.9966 140.065 99.4744 140.382C101.856 141.967 104.522 143.075 107.325 143.644C107.886 143.759 108.39 144.064 108.753 144.507C109.115 144.951 109.313 145.506 109.312 146.079V151.547Z" fill="#AEA15B"/>
<path d="M111.797 139.125C108.357 139.125 104.995 138.105 102.135 136.194C99.2753 134.283 97.0463 131.567 95.73 128.389C94.4138 125.212 94.0694 121.715 94.7404 118.342C95.4114 114.968 97.0677 111.869 99.4999 109.437C101.932 107.005 105.031 105.349 108.404 104.678C111.778 104.007 115.274 104.351 118.452 105.668C121.63 106.984 124.346 109.213 126.257 112.073C128.168 114.933 129.188 118.295 129.188 121.734C129.182 126.345 127.348 130.765 124.088 134.026C120.828 137.286 116.408 139.12 111.797 139.125ZM111.797 109.313C109.34 109.313 106.938 110.041 104.896 111.406C102.853 112.771 101.261 114.711 100.321 116.981C99.3804 119.251 99.1344 121.748 99.6137 124.158C100.093 126.567 101.276 128.781 103.013 130.518C104.751 132.255 106.964 133.438 109.373 133.918C111.783 134.397 114.281 134.151 116.551 133.211C118.82 132.271 120.76 130.678 122.125 128.636C123.49 126.593 124.219 124.191 124.219 121.734C124.215 118.441 122.905 115.284 120.576 112.955C118.247 110.626 115.09 109.316 111.797 109.313Z" fill="#AEA15B"/>
</svg>
