<svg width="204" height="204" viewBox="0 0 204 204" fill="none" xmlns="http://www.w3.org/2000/svg">
<path d="M110.5 93.5H93.5V76.5H110.5V93.5ZM110.5 51H93.5V68H110.5V51ZM136 127.5H119V144.5H136V127.5ZM136 51H119V68H136V51ZM136 102H119V119H136V102ZM136 25.5H119V42.5H136V25.5ZM136 76.5H119V93.5H136V76.5ZM110.5 25.5H93.5V42.5H110.5V25.5ZM85 76.5H68V93.5H85V76.5ZM85 127.5H68V144.5H85V127.5ZM85 102H68V119H85V102ZM153.85 17V195.5H165.75V204H153.85H123.25H80.75H50.15H38.25V195.5H50.15V17H38.25V8.5H50.15H62.05V0H141.95V8.5H153.85H165.75V17H153.85ZM114.75 174.25C114.75 167.22 109.03 161.5 102 161.5C94.9705 161.5 89.25 167.22 89.25 174.25V195.5H114.75V174.25ZM145.35 17H58.65V195.5H80.75V174.25C80.75 162.529 90.2828 153 102 153C113.717 153 123.25 162.529 123.25 174.25V195.5H145.35V17ZM110.5 127.5H93.5V144.5H110.5V127.5ZM110.5 102H93.5V119H110.5V102ZM85 51H68V68H85V51ZM85 25.5H68V42.5H85V25.5Z" fill="#B8A74D"/>
</svg>
