<svg width="181" height="181" viewBox="0 0 181 181" fill="none" xmlns="http://www.w3.org/2000/svg">
<path d="M125.625 110.852H105.008V103.923C112.09 101.278 117.471 95.1235 118.983 87.5683C125.204 87.6948 132.419 88.1071 136.976 83.0163C145.454 75.1861 141.263 59.7955 130.245 57.1418C130.246 57.1416 130.246 51.5677 130.246 51.5677C130.246 30.5777 112.542 13.5012 90.7817 13.5012C66.3683 13.5552 49.0555 33.9274 51.3211 57.1414C40.2778 59.9171 36.0956 75.0327 44.5683 82.9934C49.1128 88.0753 56.2669 87.7048 62.484 87.5679C63.9259 94.7761 68.8808 100.728 75.4839 103.556V110.342H57.3828C37.7185 110.342 21.7191 126.34 21.7191 146.005V164.671C21.7191 166.232 22.9841 167.499 24.5472 167.499H156.453C158.016 167.499 159.281 166.232 159.281 164.671V144.477C159.281 125.936 144.182 110.852 125.625 110.852ZM113.313 116.508L100.724 132.208L94.4437 125.595L103.143 116.508H113.313ZM135.891 72.0412C135.993 77.3273 131.329 82.0178 126.02 81.912C126.02 81.912 119.416 81.912 119.416 81.912V62.1994H126.02C131.464 62.1994 135.891 66.6142 135.891 72.0412ZM90.7817 19.1575C109.424 19.1575 124.589 33.6972 124.589 51.5677V56.544L119.416 56.5471V49.4852C119.416 37.2945 109.499 27.3767 97.3079 27.3767H84.1588C71.9681 27.3767 62.0503 37.2945 62.0503 49.4852V56.5431H56.9768V51.5677C56.9768 33.6972 72.142 19.1575 90.7817 19.1575ZM100.78 44.3841C99.5174 43.47 97.7498 43.7544 96.8329 45.0166C96.8191 45.0359 95.4161 46.9526 92.9139 49.1994C87.7863 54.0074 80.5287 57.2603 73.7577 56.543C73.7577 56.5431 67.7065 56.5431 67.7065 56.5431V49.4852C67.7065 40.4139 75.0862 33.0329 84.1588 33.0329H97.3079C106.381 33.0329 113.76 40.4139 113.76 49.4852V56.5505C107.749 56.5042 101.486 57.3018 95.8219 54.1542C99.7351 50.4429 104.083 47.2729 100.78 44.3841ZM48.567 78.9955C42.3421 73.1757 46.9901 61.9305 55.5437 62.1996C55.5434 62.1994 62.0503 62.1959 62.0503 62.1959V81.912C57.7837 81.8436 51.6784 82.6999 48.567 78.9955ZM67.7846 84.7643C67.6262 85.6167 67.7388 62.3564 67.7065 62.1927C75.9055 62.3735 83.3396 62.7095 90.7822 57.8168C98.4239 62.7958 105.656 62.3632 113.76 62.199C113.705 63.0502 113.911 85.5779 113.592 85.4457C113.592 85.4458 104.318 85.4458 104.318 85.4458C101.798 76.1337 88.0831 77.8296 87.9536 87.5533C87.9536 92.1488 91.6932 95.887 96.2889 95.887C99.6107 95.887 102.461 93.9204 103.798 91.1021H111.747C108.951 96.207 103.528 99.6776 97.3079 99.6776H84.1588C75.6058 99.6776 68.5638 93.1161 67.7846 84.7643ZM98.9651 87.553C98.9462 91.055 93.6276 91.052 93.6099 87.5529C93.6278 84.0554 98.947 84.0529 98.9651 87.553ZM99.3517 105.23L99.3518 112.289L90.5444 121.489L81.1401 111.588V105.103C82.1299 105.239 98.2707 105.436 99.3517 105.23ZM77.5273 115.999L86.6264 125.576L80.2398 132.258L66.7002 115.999H77.5273ZM27.3754 146.005C27.3157 128.695 42.1361 115.013 59.3379 115.999C59.3379 115.999 77.9198 138.313 77.9198 138.313C78.9398 139.595 81.0315 139.669 82.1372 138.456C82.1372 138.457 87.8984 132.429 87.8984 132.429V161.842H27.3754L27.3754 146.005ZM153.625 161.842H93.5546V132.868L98.8574 138.45C99.9757 139.684 102.101 139.593 103.113 138.271C103.113 138.272 120.564 116.508 120.564 116.508H125.625C141.064 116.508 153.625 129.055 153.625 144.477V161.842Z" fill="#B8A74D"/>
</svg>
